<?xml version="1.0" encoding="UTF-8"?>
<svg xmlns="http://www.w3.org/2000/svg" width="920" height="620" viewBox="0 0 920 620">
<rect x="0" y="0" width="920" height="620" fill="#ffffff"/>
<text x="460.0" y="32" text-anchor="middle" font-family="Arial, sans-serif" font-size="20" font-weight="700">Total Travel Distance by P</text>
<text transform="translate(22 288.0) rotate(-90)" text-anchor="middle" font-family="Arial, sans-serif" font-size="15">Total Travel Distance</text>
<line x1="96" y1="500.0" x2="886" y2="500.0" stroke="#d9d9d9" stroke-width="1"/>
<text x="86" y="504.0" text-anchor="end" font-family="Arial, sans-serif" font-size="12" fill="#333333">100</text>
<line x1="96" y1="394.0" x2="886" y2="394.0" stroke="#d9d9d9" stroke-width="1"/>
<text x="86" y="398.0" text-anchor="end" font-family="Arial, sans-serif" font-size="12" fill="#333333">200</text>
<line x1="96" y1="288.0" x2="886" y2="288.0" stroke="#d9d9d9" stroke-width="1"/>
<text x="86" y="292.0" text-anchor="end" font-family="Arial, sans-serif" font-size="12" fill="#333333">300</text>
<line x1="96" y1="182.0" x2="886" y2="182.0" stroke="#d9d9d9" stroke-width="1"/>
<text x="86" y="186.0" text-anchor="end" font-family="Arial, sans-serif" font-size="12" fill="#333333">400</text>
<line x1="96" y1="76.0" x2="886" y2="76.0" stroke="#d9d9d9" stroke-width="1"/>
<text x="86" y="80.0" text-anchor="end" font-family="Arial, sans-serif" font-size="12" fill="#333333">500</text>
<line x1="96" y1="76" x2="96" y2="500" stroke="#333333" stroke-width="1.2"/>
<line x1="96" y1="500" x2="886" y2="500" stroke="#333333" stroke-width="1.2"/>
<line x1="161.8" y1="210.9" x2="161.8" y2="425.9" stroke="#333333" stroke-width="1.2"/>
<line x1="145.6" y1="210.9" x2="178.1" y2="210.9" stroke="#333333" stroke-width="1.2"/>
<line x1="145.6" y1="425.9" x2="178.1" y2="425.9" stroke="#333333" stroke-width="1.2"/>
<rect x="136.8" y="332.6" width="50.0" height="91.0" fill="#4C78A8" fill-opacity="0.70" stroke="#333333" stroke-width="1.2"/>
<line x1="136.8" y1="376.0" x2="186.8" y2="376.0" stroke="#111111" stroke-width="2"/>
<text x="161.8" y="517" text-anchor="middle" font-family="Arial, sans-serif" font-size="10" fill="#555555">n=48</text>
<text transform="translate(157.8 533) rotate(45)" text-anchor="start" font-family="Arial, sans-serif" font-size="12" fill="#222222">0.3</text>
<line x1="293.5" y1="237.6" x2="293.5" y2="452.9" stroke="#333333" stroke-width="1.2"/>
<line x1="277.2" y1="237.6" x2="309.8" y2="237.6" stroke="#333333" stroke-width="1.2"/>
<line x1="277.2" y1="452.9" x2="309.8" y2="452.9" stroke="#333333" stroke-width="1.2"/>
<rect x="268.5" y="332.6" width="50.0" height="79.0" fill="#F58518" fill-opacity="0.70" stroke="#333333" stroke-width="1.2"/>
<line x1="268.5" y1="376.9" x2="318.5" y2="376.9" stroke="#111111" stroke-width="2"/>
<circle cx="293.5" cy="184.7" r="3" fill="#ffffff" stroke="#333333" stroke-width="1"/>
<text x="293.5" y="517" text-anchor="middle" font-family="Arial, sans-serif" font-size="10" fill="#555555">n=96</text>
<text transform="translate(289.5 533) rotate(45)" text-anchor="start" font-family="Arial, sans-serif" font-size="12" fill="#222222">0.4</text>
<line x1="425.2" y1="318.2" x2="425.2" y2="425.9" stroke="#333333" stroke-width="1.2"/>
<line x1="408.9" y1="318.2" x2="441.4" y2="318.2" stroke="#333333" stroke-width="1.2"/>
<line x1="408.9" y1="425.9" x2="441.4" y2="425.9" stroke="#333333" stroke-width="1.2"/>
<rect x="400.2" y="357.9" width="50.0" height="29.4" fill="#54A24B" fill-opacity="0.70" stroke="#333333" stroke-width="1.2"/>
<line x1="400.2" y1="372.6" x2="450.2" y2="372.6" stroke="#111111" stroke-width="2"/>
<circle cx="425.2" cy="310.9" r="3" fill="#ffffff" stroke="#333333" stroke-width="1"/>
<circle cx="425.2" cy="307.4" r="3" fill="#ffffff" stroke="#333333" stroke-width="1"/>
<circle cx="425.2" cy="299.7" r="3" fill="#ffffff" stroke="#333333" stroke-width="1"/>
<circle cx="425.2" cy="298.1" r="3" fill="#ffffff" stroke="#333333" stroke-width="1"/>
<circle cx="425.2" cy="293.9" r="3" fill="#ffffff" stroke="#333333" stroke-width="1"/>
<circle cx="425.2" cy="286.7" r="3" fill="#ffffff" stroke="#333333" stroke-width="1"/>
<circle cx="425.2" cy="277.8" r="3" fill="#ffffff" stroke="#333333" stroke-width="1"/>
<circle cx="425.2" cy="273.8" r="3" fill="#ffffff" stroke="#333333" stroke-width="1"/>
<circle cx="425.2" cy="273.5" r="3" fill="#ffffff" stroke="#333333" stroke-width="1"/>
<circle cx="425.2" cy="258.8" r="3" fill="#ffffff" stroke="#333333" stroke-width="1"/>
<circle cx="425.2" cy="258.3" r="3" fill="#ffffff" stroke="#333333" stroke-width="1"/>
<circle cx="425.2" cy="161.3" r="3" fill="#ffffff" stroke="#333333" stroke-width="1"/>
<text x="425.2" y="517" text-anchor="middle" font-family="Arial, sans-serif" font-size="10" fill="#555555">n=128</text>
<text transform="translate(421.2 533) rotate(45)" text-anchor="start" font-family="Arial, sans-serif" font-size="12" fill="#222222">0.5</text>
<line x1="556.8" y1="257.2" x2="556.8" y2="452.0" stroke="#333333" stroke-width="1.2"/>
<line x1="540.6" y1="257.2" x2="573.1" y2="257.2" stroke="#333333" stroke-width="1.2"/>
<line x1="540.6" y1="452.0" x2="573.1" y2="452.0" stroke="#333333" stroke-width="1.2"/>
<rect x="531.8" y="326.1" width="50.0" height="59.9" fill="#E45756" fill-opacity="0.70" stroke="#333333" stroke-width="1.2"/>
<line x1="531.8" y1="364.9" x2="581.8" y2="364.9" stroke="#111111" stroke-width="2"/>
<circle cx="556.8" cy="234.5" r="3" fill="#ffffff" stroke="#333333" stroke-width="1"/>
<circle cx="556.8" cy="231.7" r="3" fill="#ffffff" stroke="#333333" stroke-width="1"/>
<circle cx="556.8" cy="228.5" r="3" fill="#ffffff" stroke="#333333" stroke-width="1"/>
<circle cx="556.8" cy="209.4" r="3" fill="#ffffff" stroke="#333333" stroke-width="1"/>
<text x="556.8" y="517" text-anchor="middle" font-family="Arial, sans-serif" font-size="10" fill="#555555">n=192</text>
<text transform="translate(552.8 533) rotate(45)" text-anchor="start" font-family="Arial, sans-serif" font-size="12" fill="#222222">0.6</text>
<line x1="688.5" y1="239.1" x2="688.5" y2="425.9" stroke="#333333" stroke-width="1.2"/>
<line x1="672.2" y1="239.1" x2="704.8" y2="239.1" stroke="#333333" stroke-width="1.2"/>
<line x1="672.2" y1="425.9" x2="704.8" y2="425.9" stroke="#333333" stroke-width="1.2"/>
<rect x="663.5" y="303.3" width="50.0" height="64.3" fill="#72B7B2" fill-opacity="0.70" stroke="#333333" stroke-width="1.2"/>
<line x1="663.5" y1="336.6" x2="713.5" y2="336.6" stroke="#111111" stroke-width="2"/>
<text x="688.5" y="517" text-anchor="middle" font-family="Arial, sans-serif" font-size="10" fill="#555555">n=64</text>
<text transform="translate(684.5 533) rotate(45)" text-anchor="start" font-family="Arial, sans-serif" font-size="12" fill="#222222">0.7</text>
<line x1="820.2" y1="224.8" x2="820.2" y2="398.6" stroke="#333333" stroke-width="1.2"/>
<line x1="803.9" y1="224.8" x2="836.4" y2="224.8" stroke="#333333" stroke-width="1.2"/>
<line x1="803.9" y1="398.6" x2="836.4" y2="398.6" stroke="#333333" stroke-width="1.2"/>
<rect x="795.2" y="293.1" width="50.0" height="54.1" fill="#B279A2" fill-opacity="0.70" stroke="#333333" stroke-width="1.2"/>
<line x1="795.2" y1="311.4" x2="845.2" y2="311.4" stroke="#111111" stroke-width="2"/>
<text x="820.2" y="517" text-anchor="middle" font-family="Arial, sans-serif" font-size="10" fill="#555555">n=112</text>
<text transform="translate(816.2 533) rotate(45)" text-anchor="start" font-family="Arial, sans-serif" font-size="12" fill="#222222">0.8</text>
</svg>
