<?xml version="1.0" encoding="UTF-8"?>
<svg xmlns="http://www.w3.org/2000/svg" width="920" height="620" viewBox="0 0 920 620">
<rect x="0" y="0" width="920" height="620" fill="#ffffff"/>
<text x="460.0" y="32" text-anchor="middle" font-family="Arial, sans-serif" font-size="20" font-weight="700">Computation Time (s): FQS vs OR-Tools Reference (N5)</text>
<text transform="translate(22 288.0) rotate(-90)" text-anchor="middle" font-family="Arial, sans-serif" font-size="15">Computation Time (s)</text>
<line x1="96" y1="500.0" x2="886" y2="500.0" stroke="#d9d9d9" stroke-width="1"/>
<text x="86" y="504.0" text-anchor="end" font-family="Arial, sans-serif" font-size="12" fill="#333333">0</text>
<line x1="96" y1="429.3" x2="886" y2="429.3" stroke="#d9d9d9" stroke-width="1"/>
<text x="86" y="433.3" text-anchor="end" font-family="Arial, sans-serif" font-size="12" fill="#333333">2</text>
<line x1="96" y1="358.7" x2="886" y2="358.7" stroke="#d9d9d9" stroke-width="1"/>
<text x="86" y="362.7" text-anchor="end" font-family="Arial, sans-serif" font-size="12" fill="#333333">4</text>
<line x1="96" y1="288.0" x2="886" y2="288.0" stroke="#d9d9d9" stroke-width="1"/>
<text x="86" y="292.0" text-anchor="end" font-family="Arial, sans-serif" font-size="12" fill="#333333">6</text>
<line x1="96" y1="217.3" x2="886" y2="217.3" stroke="#d9d9d9" stroke-width="1"/>
<text x="86" y="221.3" text-anchor="end" font-family="Arial, sans-serif" font-size="12" fill="#333333">8</text>
<line x1="96" y1="146.7" x2="886" y2="146.7" stroke="#d9d9d9" stroke-width="1"/>
<text x="86" y="150.7" text-anchor="end" font-family="Arial, sans-serif" font-size="12" fill="#333333">10</text>
<line x1="96" y1="76.0" x2="886" y2="76.0" stroke="#d9d9d9" stroke-width="1"/>
<text x="86" y="80.0" text-anchor="end" font-family="Arial, sans-serif" font-size="12" fill="#333333">12</text>
<line x1="96" y1="76" x2="96" y2="500" stroke="#333333" stroke-width="1.2"/>
<line x1="96" y1="500" x2="886" y2="500" stroke="#333333" stroke-width="1.2"/>
<line x1="227.7" y1="221.5" x2="227.7" y2="276.7" stroke="#333333" stroke-width="1.2"/>
<line x1="211.4" y1="221.5" x2="243.9" y2="221.5" stroke="#333333" stroke-width="1.2"/>
<line x1="211.4" y1="276.7" x2="243.9" y2="276.7" stroke="#333333" stroke-width="1.2"/>
<rect x="202.7" y="227.2" width="50.0" height="35.5" fill="#4C78A8" fill-opacity="0.70" stroke="#333333" stroke-width="1.2"/>
<line x1="202.7" y1="254.2" x2="252.7" y2="254.2" stroke="#111111" stroke-width="2"/>
<text x="227.7" y="517" text-anchor="middle" font-family="Arial, sans-serif" font-size="10" fill="#555555">n=56</text>
<text transform="translate(223.7 533) rotate(45)" text-anchor="start" font-family="Arial, sans-serif" font-size="12" fill="#222222">Uncoarsened FQS</text>
<line x1="491.0" y1="239.6" x2="491.0" y2="431.6" stroke="#333333" stroke-width="1.2"/>
<line x1="474.8" y1="239.6" x2="507.2" y2="239.6" stroke="#333333" stroke-width="1.2"/>
<line x1="474.8" y1="431.6" x2="507.2" y2="431.6" stroke="#333333" stroke-width="1.2"/>
<rect x="466.0" y="341.7" width="50.0" height="84.4" fill="#F58518" fill-opacity="0.70" stroke="#333333" stroke-width="1.2"/>
<line x1="466.0" y1="403.2" x2="516.0" y2="403.2" stroke="#111111" stroke-width="2"/>
<text x="491.0" y="517" text-anchor="middle" font-family="Arial, sans-serif" font-size="10" fill="#555555">n=56</text>
<text transform="translate(487.0 533) rotate(45)" text-anchor="start" font-family="Arial, sans-serif" font-size="12" fill="#222222">Coarsened FQS</text>
<line x1="754.3" y1="146.6" x2="754.3" y2="146.6" stroke="#333333" stroke-width="1.2"/>
<line x1="738.1" y1="146.6" x2="770.6" y2="146.6" stroke="#333333" stroke-width="1.2"/>
<line x1="738.1" y1="146.6" x2="770.6" y2="146.6" stroke="#333333" stroke-width="1.2"/>
<rect x="729.3" y="146.6" width="50.0" height="1.5" fill="#54A24B" fill-opacity="0.70" stroke="#333333" stroke-width="1.2"/>
<line x1="729.3" y1="146.6" x2="779.3" y2="146.6" stroke="#111111" stroke-width="2"/>
<circle cx="754.3" cy="146.6" r="3" fill="#ffffff" stroke="#333333" stroke-width="1"/>
<circle cx="754.3" cy="146.6" r="3" fill="#ffffff" stroke="#333333" stroke-width="1"/>
<circle cx="754.3" cy="146.6" r="3" fill="#ffffff" stroke="#333333" stroke-width="1"/>
<circle cx="754.3" cy="146.6" r="3" fill="#ffffff" stroke="#333333" stroke-width="1"/>
<circle cx="754.3" cy="146.6" r="3" fill="#ffffff" stroke="#333333" stroke-width="1"/>
<circle cx="754.3" cy="146.2" r="3" fill="#ffffff" stroke="#333333" stroke-width="1"/>
<text x="754.3" y="517" text-anchor="middle" font-family="Arial, sans-serif" font-size="10" fill="#555555">n=56</text>
<text transform="translate(750.3 533) rotate(45)" text-anchor="start" font-family="Arial, sans-serif" font-size="12" fill="#222222">Uncoarsened OR-Tools</text>
</svg>
