<?xml version="1.0" encoding="UTF-8"?>
<svg xmlns="http://www.w3.org/2000/svg" width="1100" height="905" viewBox="0 0 1100 905">
<rect x="0" y="0" width="1100" height="905" fill="#ffffff"/>
<text x="550.0" y="32" text-anchor="middle" font-family="Arial, sans-serif" font-size="42" font-weight="700">Total Service Time</text>
<text transform="translate(22 355.0) rotate(-90)" text-anchor="middle" font-family="Arial, sans-serif" font-size="34">Total Service Time</text>
<line x1="170" y1="565.0" x2="1044" y2="565.0" stroke="#d9d9d9" stroke-width="1"/>
<text x="156" y="574.0" text-anchor="end" font-family="Arial, sans-serif" font-size="28" fill="#333333">0</text>
<line x1="170" y1="481.0" x2="1044" y2="481.0" stroke="#d9d9d9" stroke-width="1"/>
<text x="156" y="490.0" text-anchor="end" font-family="Arial, sans-serif" font-size="28" fill="#333333">200</text>
<line x1="170" y1="397.0" x2="1044" y2="397.0" stroke="#d9d9d9" stroke-width="1"/>
<text x="156" y="406.0" text-anchor="end" font-family="Arial, sans-serif" font-size="28" fill="#333333">400</text>
<line x1="170" y1="313.0" x2="1044" y2="313.0" stroke="#d9d9d9" stroke-width="1"/>
<text x="156" y="322.0" text-anchor="end" font-family="Arial, sans-serif" font-size="28" fill="#333333">600</text>
<line x1="170" y1="229.0" x2="1044" y2="229.0" stroke="#d9d9d9" stroke-width="1"/>
<text x="156" y="238.0" text-anchor="end" font-family="Arial, sans-serif" font-size="28" fill="#333333">800</text>
<line x1="170" y1="145.0" x2="1044" y2="145.0" stroke="#d9d9d9" stroke-width="1"/>
<text x="156" y="154.0" text-anchor="end" font-family="Arial, sans-serif" font-size="28" fill="#333333">1,000</text>
<line x1="170" y1="145" x2="170" y2="565" stroke="#333333" stroke-width="1.2"/>
<line x1="170" y1="565" x2="1044" y2="565" stroke="#333333" stroke-width="1.2"/>
<line x1="315.7" y1="187.0" x2="315.7" y2="523.0" stroke="#333333" stroke-width="1.2"/>
<line x1="299.4" y1="187.0" x2="331.9" y2="187.0" stroke="#333333" stroke-width="1.2"/>
<line x1="299.4" y1="523.0" x2="331.9" y2="523.0" stroke="#333333" stroke-width="1.2"/>
<rect x="290.7" y="187.0" width="50.0" height="336.0" fill="#4C78A8" fill-opacity="0.70" stroke="#333333" stroke-width="1.2"/>
<line x1="290.7" y1="523.0" x2="340.7" y2="523.0" stroke="#111111" stroke-width="2"/>
<text x="315.7" y="595" text-anchor="middle" font-family="Arial, sans-serif" font-size="22" fill="#555555">n=56</text>
<text transform="translate(307.7 647) rotate(45)" text-anchor="start" font-family="Arial, sans-serif" font-size="28" fill="#222222">Unc. FQS</text>
<line x1="607.0" y1="187.0" x2="607.0" y2="523.0" stroke="#333333" stroke-width="1.2"/>
<line x1="590.8" y1="187.0" x2="623.2" y2="187.0" stroke="#333333" stroke-width="1.2"/>
<line x1="590.8" y1="523.0" x2="623.2" y2="523.0" stroke="#333333" stroke-width="1.2"/>
<rect x="582.0" y="187.0" width="50.0" height="336.0" fill="#F58518" fill-opacity="0.70" stroke="#333333" stroke-width="1.2"/>
<line x1="582.0" y1="523.0" x2="632.0" y2="523.0" stroke="#111111" stroke-width="2"/>
<text x="607.0" y="595" text-anchor="middle" font-family="Arial, sans-serif" font-size="22" fill="#555555">n=56</text>
<text transform="translate(599.0 647) rotate(45)" text-anchor="start" font-family="Arial, sans-serif" font-size="28" fill="#222222">Coars. FQS</text>
<line x1="898.3" y1="187.0" x2="898.3" y2="523.0" stroke="#333333" stroke-width="1.2"/>
<line x1="882.1" y1="187.0" x2="914.6" y2="187.0" stroke="#333333" stroke-width="1.2"/>
<line x1="882.1" y1="523.0" x2="914.6" y2="523.0" stroke="#333333" stroke-width="1.2"/>
<rect x="873.3" y="187.0" width="50.0" height="336.0" fill="#54A24B" fill-opacity="0.70" stroke="#333333" stroke-width="1.2"/>
<line x1="873.3" y1="523.0" x2="923.3" y2="523.0" stroke="#111111" stroke-width="2"/>
<text x="898.3" y="595" text-anchor="middle" font-family="Arial, sans-serif" font-size="22" fill="#555555">n=56</text>
<text transform="translate(890.3 647) rotate(45)" text-anchor="start" font-family="Arial, sans-serif" font-size="28" fill="#222222">Unc. OR-Tools</text>
</svg>
