<?xml version="1.0" encoding="UTF-8"?>
<svg xmlns="http://www.w3.org/2000/svg" width="2400" height="620" viewBox="0 0 2400 620">
<rect x="0" y="0" width="2400" height="620" fill="#ffffff"/>
<text x="1200.0" y="32" text-anchor="middle" font-family="Arial, sans-serif" font-size="20" font-weight="700">Total Travel Distance - All Output Files</text>
<text transform="translate(22 233.0) rotate(-90)" text-anchor="middle" font-family="Arial, sans-serif" font-size="15">Total Travel Distance</text>
<line x1="96" y1="390.0" x2="2366" y2="390.0" stroke="#d9d9d9" stroke-width="1"/>
<text x="86" y="394.0" text-anchor="end" font-family="Arial, sans-serif" font-size="12" fill="#333333">0</text>
<line x1="96" y1="311.5" x2="2366" y2="311.5" stroke="#d9d9d9" stroke-width="1"/>
<text x="86" y="315.5" text-anchor="end" font-family="Arial, sans-serif" font-size="12" fill="#333333">1,000</text>
<line x1="96" y1="233.0" x2="2366" y2="233.0" stroke="#d9d9d9" stroke-width="1"/>
<text x="86" y="237.0" text-anchor="end" font-family="Arial, sans-serif" font-size="12" fill="#333333">2,000</text>
<line x1="96" y1="154.5" x2="2366" y2="154.5" stroke="#d9d9d9" stroke-width="1"/>
<text x="86" y="158.5" text-anchor="end" font-family="Arial, sans-serif" font-size="12" fill="#333333">3,000</text>
<line x1="96" y1="76.0" x2="2366" y2="76.0" stroke="#d9d9d9" stroke-width="1"/>
<text x="86" y="80.0" text-anchor="end" font-family="Arial, sans-serif" font-size="12" fill="#333333">4,000</text>
<line x1="96" y1="76" x2="96" y2="390" stroke="#333333" stroke-width="1.2"/>
<line x1="96" y1="390" x2="2366" y2="390" stroke="#333333" stroke-width="1.2"/>
<line x1="136.5" y1="350.1" x2="136.5" y2="373.5" stroke="#333333" stroke-width="1.2"/>
<line x1="124.4" y1="350.1" x2="148.7" y2="350.1" stroke="#333333" stroke-width="1.2"/>
<line x1="124.4" y1="373.5" x2="148.7" y2="373.5" stroke="#333333" stroke-width="1.2"/>
<rect x="117.9" y="358.7" width="37.3" height="8.2" fill="#4C78A8" fill-opacity="0.70" stroke="#333333" stroke-width="1.2"/>
<line x1="117.9" y1="361.5" x2="155.2" y2="361.5" stroke="#111111" stroke-width="2"/>
<text x="136.5" y="407" text-anchor="middle" font-family="Arial, sans-serif" font-size="10" fill="#555555">n=56</text>
<text transform="translate(132.5 423) rotate(45)" text-anchor="start" font-family="Arial, sans-serif" font-size="12" fill="#222222">result_only_coarsened_simulated_annealing | Inflated APS</text>
<line x1="217.6" y1="352.4" x2="217.6" y2="373.5" stroke="#333333" stroke-width="1.2"/>
<line x1="205.5" y1="352.4" x2="229.7" y2="352.4" stroke="#333333" stroke-width="1.2"/>
<line x1="205.5" y1="373.5" x2="229.7" y2="373.5" stroke="#333333" stroke-width="1.2"/>
<rect x="199.0" y="358.5" width="37.3" height="8.9" fill="#F58518" fill-opacity="0.70" stroke="#333333" stroke-width="1.2"/>
<line x1="199.0" y1="361.2" x2="236.3" y2="361.2" stroke="#111111" stroke-width="2"/>
<text x="217.6" y="407" text-anchor="middle" font-family="Arial, sans-serif" font-size="10" fill="#555555">n=56</text>
<text transform="translate(213.6 423) rotate(45)" text-anchor="start" font-family="Arial, sans-serif" font-size="12" fill="#222222">result_only_coarsened_simulated_annealing | Inflated FQS</text>
<line x1="298.7" y1="185.7" x2="298.7" y2="322.5" stroke="#333333" stroke-width="1.2"/>
<line x1="286.6" y1="185.7" x2="310.8" y2="185.7" stroke="#333333" stroke-width="1.2"/>
<line x1="286.6" y1="322.5" x2="310.8" y2="322.5" stroke="#333333" stroke-width="1.2"/>
<rect x="280.0" y="234.8" width="37.3" height="42.1" fill="#54A24B" fill-opacity="0.70" stroke="#333333" stroke-width="1.2"/>
<line x1="280.0" y1="254.5" x2="317.3" y2="254.5" stroke="#111111" stroke-width="2"/>
<text x="298.7" y="407" text-anchor="middle" font-family="Arial, sans-serif" font-size="10" fill="#555555">n=56</text>
<text transform="translate(294.7 423) rotate(45)" text-anchor="start" font-family="Arial, sans-serif" font-size="12" fill="#222222">results_classical_solvers | Inflated Greedy</text>
<line x1="379.8" y1="179.1" x2="379.8" y2="337.7" stroke="#333333" stroke-width="1.2"/>
<line x1="367.6" y1="179.1" x2="391.9" y2="179.1" stroke="#333333" stroke-width="1.2"/>
<line x1="367.6" y1="337.7" x2="391.9" y2="337.7" stroke="#333333" stroke-width="1.2"/>
<rect x="361.1" y="254.2" width="37.3" height="52.0" fill="#E45756" fill-opacity="0.70" stroke="#333333" stroke-width="1.2"/>
<line x1="361.1" y1="281.4" x2="398.4" y2="281.4" stroke="#111111" stroke-width="2"/>
<text x="379.8" y="407" text-anchor="middle" font-family="Arial, sans-serif" font-size="10" fill="#555555">n=56</text>
<text transform="translate(375.8 423) rotate(45)" text-anchor="start" font-family="Arial, sans-serif" font-size="12" fill="#222222">results_classical_solvers | Inflated Savings</text>
<line x1="460.8" y1="169.2" x2="460.8" y2="312.0" stroke="#333333" stroke-width="1.2"/>
<line x1="448.7" y1="169.2" x2="472.9" y2="169.2" stroke="#333333" stroke-width="1.2"/>
<line x1="448.7" y1="312.0" x2="472.9" y2="312.0" stroke="#333333" stroke-width="1.2"/>
<rect x="442.2" y="223.9" width="37.3" height="46.3" fill="#72B7B2" fill-opacity="0.70" stroke="#333333" stroke-width="1.2"/>
<line x1="442.2" y1="247.4" x2="479.5" y2="247.4" stroke="#111111" stroke-width="2"/>
<text x="460.8" y="407" text-anchor="middle" font-family="Arial, sans-serif" font-size="10" fill="#555555">n=56</text>
<text transform="translate(456.8 423) rotate(45)" text-anchor="start" font-family="Arial, sans-serif" font-size="12" fill="#222222">results_classical_solvers | Uncoarsened Greedy</text>
<line x1="541.9" y1="207.9" x2="541.9" y2="334.1" stroke="#333333" stroke-width="1.2"/>
<line x1="529.8" y1="207.9" x2="554.0" y2="207.9" stroke="#333333" stroke-width="1.2"/>
<line x1="529.8" y1="334.1" x2="554.0" y2="334.1" stroke="#333333" stroke-width="1.2"/>
<rect x="523.2" y="272.8" width="37.3" height="44.5" fill="#B279A2" fill-opacity="0.70" stroke="#333333" stroke-width="1.2"/>
<line x1="523.2" y1="301.7" x2="560.5" y2="301.7" stroke="#111111" stroke-width="2"/>
<circle cx="541.9" cy="193.9" r="3" fill="#ffffff" stroke="#333333" stroke-width="1"/>
<text x="541.9" y="407" text-anchor="middle" font-family="Arial, sans-serif" font-size="10" fill="#555555">n=56</text>
<text transform="translate(537.9 423) rotate(45)" text-anchor="start" font-family="Arial, sans-serif" font-size="12" fill="#222222">results_classical_solvers | Uncoarsened Savings</text>
<line x1="623.0" y1="360.7" x2="623.0" y2="382.9" stroke="#333333" stroke-width="1.2"/>
<line x1="610.8" y1="360.7" x2="635.1" y2="360.7" stroke="#333333" stroke-width="1.2"/>
<line x1="610.8" y1="382.9" x2="635.1" y2="382.9" stroke="#333333" stroke-width="1.2"/>
<rect x="604.3" y="367.6" width="37.3" height="7.6" fill="#FF9DA6" fill-opacity="0.70" stroke="#333333" stroke-width="1.2"/>
<line x1="604.3" y1="371.0" x2="641.6" y2="371.0" stroke="#111111" stroke-width="2"/>
<text x="623.0" y="407" text-anchor="middle" font-family="Arial, sans-serif" font-size="10" fill="#555555">n=56</text>
<text transform="translate(619.0 423) rotate(45)" text-anchor="start" font-family="Arial, sans-serif" font-size="12" fill="#222222">results_dwave10customer | N10 Inflated APS</text>
<line x1="704.0" y1="361.8" x2="704.0" y2="383.3" stroke="#333333" stroke-width="1.2"/>
<line x1="691.9" y1="361.8" x2="716.2" y2="361.8" stroke="#333333" stroke-width="1.2"/>
<line x1="691.9" y1="383.3" x2="716.2" y2="383.3" stroke="#333333" stroke-width="1.2"/>
<rect x="685.4" y="368.2" width="37.3" height="8.1" fill="#9D755D" fill-opacity="0.70" stroke="#333333" stroke-width="1.2"/>
<line x1="685.4" y1="371.4" x2="722.7" y2="371.4" stroke="#111111" stroke-width="2"/>
<text x="704.0" y="407" text-anchor="middle" font-family="Arial, sans-serif" font-size="10" fill="#555555">n=56</text>
<text transform="translate(700.0 423) rotate(45)" text-anchor="start" font-family="Arial, sans-serif" font-size="12" fill="#222222">results_dwave10customer | N10 Inflated FQS</text>
<line x1="785.1" y1="352.9" x2="785.1" y2="377.5" stroke="#333333" stroke-width="1.2"/>
<line x1="773.0" y1="352.9" x2="797.2" y2="352.9" stroke="#333333" stroke-width="1.2"/>
<line x1="773.0" y1="377.5" x2="797.2" y2="377.5" stroke="#333333" stroke-width="1.2"/>
<rect x="766.5" y="362.0" width="37.3" height="6.6" fill="#BAB0AC" fill-opacity="0.70" stroke="#333333" stroke-width="1.2"/>
<line x1="766.5" y1="364.6" x2="803.8" y2="364.6" stroke="#111111" stroke-width="2"/>
<circle cx="785.1" cy="381.2" r="3" fill="#ffffff" stroke="#333333" stroke-width="1"/>
<circle cx="785.1" cy="379.6" r="3" fill="#ffffff" stroke="#333333" stroke-width="1"/>
<circle cx="785.1" cy="379.4" r="3" fill="#ffffff" stroke="#333333" stroke-width="1"/>
<circle cx="785.1" cy="379.3" r="3" fill="#ffffff" stroke="#333333" stroke-width="1"/>
<circle cx="785.1" cy="379.2" r="3" fill="#ffffff" stroke="#333333" stroke-width="1"/>
<circle cx="785.1" cy="379.2" r="3" fill="#ffffff" stroke="#333333" stroke-width="1"/>
<circle cx="785.1" cy="351.6" r="3" fill="#ffffff" stroke="#333333" stroke-width="1"/>
<text x="785.1" y="407" text-anchor="middle" font-family="Arial, sans-serif" font-size="10" fill="#555555">n=56</text>
<text transform="translate(781.1 423) rotate(45)" text-anchor="start" font-family="Arial, sans-serif" font-size="12" fill="#222222">results_dwave10customer | N10 Uncoarsened APS</text>
<line x1="866.2" y1="352.0" x2="866.2" y2="379.3" stroke="#333333" stroke-width="1.2"/>
<line x1="854.1" y1="352.0" x2="878.3" y2="352.0" stroke="#333333" stroke-width="1.2"/>
<line x1="854.1" y1="379.3" x2="878.3" y2="379.3" stroke="#333333" stroke-width="1.2"/>
<rect x="847.5" y="361.4" width="37.3" height="7.8" fill="#4C78A8" fill-opacity="0.70" stroke="#333333" stroke-width="1.2"/>
<line x1="847.5" y1="363.9" x2="884.8" y2="363.9" stroke="#111111" stroke-width="2"/>
<circle cx="866.2" cy="381.8" r="3" fill="#ffffff" stroke="#333333" stroke-width="1"/>
<circle cx="866.2" cy="381.4" r="3" fill="#ffffff" stroke="#333333" stroke-width="1"/>
<text x="866.2" y="407" text-anchor="middle" font-family="Arial, sans-serif" font-size="10" fill="#555555">n=56</text>
<text transform="translate(862.2 423) rotate(45)" text-anchor="start" font-family="Arial, sans-serif" font-size="12" fill="#222222">results_dwave10customer | N10 Uncoarsened FQS</text>
<line x1="947.2" y1="375.2" x2="947.2" y2="384.1" stroke="#333333" stroke-width="1.2"/>
<line x1="935.1" y1="375.2" x2="959.4" y2="375.2" stroke="#333333" stroke-width="1.2"/>
<line x1="935.1" y1="384.1" x2="959.4" y2="384.1" stroke="#333333" stroke-width="1.2"/>
<rect x="928.6" y="377.2" width="37.3" height="3.8" fill="#F58518" fill-opacity="0.70" stroke="#333333" stroke-width="1.2"/>
<line x1="928.6" y1="378.2" x2="965.9" y2="378.2" stroke="#111111" stroke-width="2"/>
<text x="947.2" y="407" text-anchor="middle" font-family="Arial, sans-serif" font-size="10" fill="#555555">n=56</text>
<text transform="translate(943.2 423) rotate(45)" text-anchor="start" font-family="Arial, sans-serif" font-size="12" fill="#222222">results_dwave5customer | N5 Inflated APS</text>
<line x1="1028.3" y1="376.3" x2="1028.3" y2="384.1" stroke="#333333" stroke-width="1.2"/>
<line x1="1016.2" y1="376.3" x2="1040.4" y2="376.3" stroke="#333333" stroke-width="1.2"/>
<line x1="1016.2" y1="384.1" x2="1040.4" y2="384.1" stroke="#333333" stroke-width="1.2"/>
<rect x="1009.7" y="377.2" width="37.3" height="3.7" fill="#54A24B" fill-opacity="0.70" stroke="#333333" stroke-width="1.2"/>
<line x1="1009.7" y1="378.0" x2="1047.0" y2="378.0" stroke="#111111" stroke-width="2"/>
<text x="1028.3" y="407" text-anchor="middle" font-family="Arial, sans-serif" font-size="10" fill="#555555">n=56</text>
<text transform="translate(1024.3 423) rotate(45)" text-anchor="start" font-family="Arial, sans-serif" font-size="12" fill="#222222">results_dwave5customer | N5 Inflated FQS</text>
<line x1="1109.4" y1="374.8" x2="1109.4" y2="385.8" stroke="#333333" stroke-width="1.2"/>
<line x1="1097.3" y1="374.8" x2="1121.5" y2="374.8" stroke="#333333" stroke-width="1.2"/>
<line x1="1097.3" y1="385.8" x2="1121.5" y2="385.8" stroke="#333333" stroke-width="1.2"/>
<rect x="1090.7" y="376.6" width="37.3" height="3.9" fill="#E45756" fill-opacity="0.70" stroke="#333333" stroke-width="1.2"/>
<line x1="1090.7" y1="377.7" x2="1128.0" y2="377.7" stroke="#111111" stroke-width="2"/>
<circle cx="1109.4" cy="386.6" r="3" fill="#ffffff" stroke="#333333" stroke-width="1"/>
<circle cx="1109.4" cy="386.3" r="3" fill="#ffffff" stroke="#333333" stroke-width="1"/>
<text x="1109.4" y="407" text-anchor="middle" font-family="Arial, sans-serif" font-size="10" fill="#555555">n=56</text>
<text transform="translate(1105.4 423) rotate(45)" text-anchor="start" font-family="Arial, sans-serif" font-size="12" fill="#222222">results_dwave5customer | N5 Uncoarsened APS</text>
<line x1="1190.5" y1="375.6" x2="1190.5" y2="386.7" stroke="#333333" stroke-width="1.2"/>
<line x1="1178.3" y1="375.6" x2="1202.6" y2="375.6" stroke="#333333" stroke-width="1.2"/>
<line x1="1178.3" y1="386.7" x2="1202.6" y2="386.7" stroke="#333333" stroke-width="1.2"/>
<rect x="1171.8" y="377.1" width="37.3" height="4.2" fill="#72B7B2" fill-opacity="0.70" stroke="#333333" stroke-width="1.2"/>
<line x1="1171.8" y1="378.0" x2="1209.1" y2="378.0" stroke="#111111" stroke-width="2"/>
<text x="1190.5" y="407" text-anchor="middle" font-family="Arial, sans-serif" font-size="10" fill="#555555">n=56</text>
<text transform="translate(1186.5 423) rotate(45)" text-anchor="start" font-family="Arial, sans-serif" font-size="12" fill="#222222">results_dwave5customer | N5 Uncoarsened FQS</text>
<line x1="1271.5" y1="257.2" x2="1271.5" y2="343.8" stroke="#333333" stroke-width="1.2"/>
<line x1="1259.4" y1="257.2" x2="1283.7" y2="257.2" stroke="#333333" stroke-width="1.2"/>
<line x1="1259.4" y1="343.8" x2="1283.7" y2="343.8" stroke="#333333" stroke-width="1.2"/>
<rect x="1252.9" y="293.3" width="37.3" height="31.7" fill="#B279A2" fill-opacity="0.70" stroke="#333333" stroke-width="1.2"/>
<line x1="1252.9" y1="312.0" x2="1290.2" y2="312.0" stroke="#111111" stroke-width="2"/>
<text x="1271.5" y="407" text-anchor="middle" font-family="Arial, sans-serif" font-size="10" fill="#555555">n=56</text>
<text transform="translate(1267.5 423) rotate(45)" text-anchor="start" font-family="Arial, sans-serif" font-size="12" fill="#222222">results_ortools_benchmark | Inflated OR-Tools</text>
<line x1="1352.6" y1="257.2" x2="1352.6" y2="343.8" stroke="#333333" stroke-width="1.2"/>
<line x1="1340.5" y1="257.2" x2="1364.7" y2="257.2" stroke="#333333" stroke-width="1.2"/>
<line x1="1340.5" y1="343.8" x2="1364.7" y2="343.8" stroke="#333333" stroke-width="1.2"/>
<rect x="1334.0" y="293.3" width="37.3" height="31.7" fill="#FF9DA6" fill-opacity="0.70" stroke="#333333" stroke-width="1.2"/>
<line x1="1334.0" y1="311.5" x2="1371.3" y2="311.5" stroke="#111111" stroke-width="2"/>
<text x="1352.6" y="407" text-anchor="middle" font-family="Arial, sans-serif" font-size="10" fill="#555555">n=56</text>
<text transform="translate(1348.6 423) rotate(45)" text-anchor="start" font-family="Arial, sans-serif" font-size="12" fill="#222222">results_ortools_benchmark | Uncoarsened OR-Tools</text>
<line x1="1433.7" y1="385.4" x2="1433.7" y2="385.4" stroke="#333333" stroke-width="1.2"/>
<line x1="1421.6" y1="385.4" x2="1445.8" y2="385.4" stroke="#333333" stroke-width="1.2"/>
<line x1="1421.6" y1="385.4" x2="1445.8" y2="385.4" stroke="#333333" stroke-width="1.2"/>
<rect x="1415.0" y="385.4" width="37.3" height="1.5" fill="#9D755D" fill-opacity="0.70" stroke="#333333" stroke-width="1.2"/>
<line x1="1415.0" y1="385.4" x2="1452.3" y2="385.4" stroke="#111111" stroke-width="2"/>
<text x="1433.7" y="407" text-anchor="middle" font-family="Arial, sans-serif" font-size="10" fill="#555555">n=1</text>
<text transform="translate(1429.7 423) rotate(45)" text-anchor="start" font-family="Arial, sans-serif" font-size="12" fill="#222222">results_ortools_quantum_benchmark | N10 Uncoarsened OR-Tools</text>
<line x1="1514.8" y1="386.7" x2="1514.8" y2="386.7" stroke="#333333" stroke-width="1.2"/>
<line x1="1502.6" y1="386.7" x2="1526.9" y2="386.7" stroke="#333333" stroke-width="1.2"/>
<line x1="1502.6" y1="386.7" x2="1526.9" y2="386.7" stroke="#333333" stroke-width="1.2"/>
<rect x="1496.1" y="386.7" width="37.3" height="1.5" fill="#BAB0AC" fill-opacity="0.70" stroke="#333333" stroke-width="1.2"/>
<line x1="1496.1" y1="386.7" x2="1533.4" y2="386.7" stroke="#111111" stroke-width="2"/>
<text x="1514.8" y="407" text-anchor="middle" font-family="Arial, sans-serif" font-size="10" fill="#555555">n=1</text>
<text transform="translate(1510.8 423) rotate(45)" text-anchor="start" font-family="Arial, sans-serif" font-size="12" fill="#222222">results_ortools_quantum_benchmark | N5 Uncoarsened OR-Tools</text>
<line x1="1595.8" y1="152.6" x2="1595.8" y2="269.1" stroke="#333333" stroke-width="1.2"/>
<line x1="1583.7" y1="152.6" x2="1607.9" y2="152.6" stroke="#333333" stroke-width="1.2"/>
<line x1="1583.7" y1="269.1" x2="1607.9" y2="269.1" stroke="#333333" stroke-width="1.2"/>
<rect x="1577.2" y="191.3" width="37.3" height="55.9" fill="#4C78A8" fill-opacity="0.70" stroke="#333333" stroke-width="1.2"/>
<line x1="1577.2" y1="241.4" x2="1614.5" y2="241.4" stroke="#111111" stroke-width="2"/>
<text x="1595.8" y="407" text-anchor="middle" font-family="Arial, sans-serif" font-size="10" fill="#555555">n=56</text>
<text transform="translate(1591.8 423) rotate(45)" text-anchor="start" font-family="Arial, sans-serif" font-size="12" fill="#222222">results_simulated_annealing_100customer | N100 Inflated APS</text>
<line x1="1676.9" y1="144.4" x2="1676.9" y2="265.0" stroke="#333333" stroke-width="1.2"/>
<line x1="1664.8" y1="144.4" x2="1689.0" y2="144.4" stroke="#333333" stroke-width="1.2"/>
<line x1="1664.8" y1="265.0" x2="1689.0" y2="265.0" stroke="#333333" stroke-width="1.2"/>
<rect x="1658.2" y="189.8" width="37.3" height="61.1" fill="#F58518" fill-opacity="0.70" stroke="#333333" stroke-width="1.2"/>
<line x1="1658.2" y1="240.2" x2="1695.5" y2="240.2" stroke="#111111" stroke-width="2"/>
<text x="1676.9" y="407" text-anchor="middle" font-family="Arial, sans-serif" font-size="10" fill="#555555">n=56</text>
<text transform="translate(1672.9 423) rotate(45)" text-anchor="start" font-family="Arial, sans-serif" font-size="12" fill="#222222">results_simulated_annealing_100customer | N100 Inflated FQS</text>
<line x1="1758.0" y1="364.8" x2="1758.0" y2="382.7" stroke="#333333" stroke-width="1.2"/>
<line x1="1745.8" y1="364.8" x2="1770.1" y2="364.8" stroke="#333333" stroke-width="1.2"/>
<line x1="1745.8" y1="382.7" x2="1770.1" y2="382.7" stroke="#333333" stroke-width="1.2"/>
<rect x="1739.3" y="369.5" width="37.3" height="7.4" fill="#54A24B" fill-opacity="0.70" stroke="#333333" stroke-width="1.2"/>
<line x1="1739.3" y1="372.5" x2="1776.6" y2="372.5" stroke="#111111" stroke-width="2"/>
<text x="1758.0" y="407" text-anchor="middle" font-family="Arial, sans-serif" font-size="10" fill="#555555">n=56</text>
<text transform="translate(1754.0 423) rotate(45)" text-anchor="start" font-family="Arial, sans-serif" font-size="12" fill="#222222">results_simulated_annealing_10customer | N10 Inflated APS</text>
<line x1="1839.0" y1="367.3" x2="1839.0" y2="382.7" stroke="#333333" stroke-width="1.2"/>
<line x1="1826.9" y1="367.3" x2="1851.2" y2="367.3" stroke="#333333" stroke-width="1.2"/>
<line x1="1826.9" y1="382.7" x2="1851.2" y2="382.7" stroke="#333333" stroke-width="1.2"/>
<rect x="1820.4" y="369.6" width="37.3" height="6.6" fill="#E45756" fill-opacity="0.70" stroke="#333333" stroke-width="1.2"/>
<line x1="1820.4" y1="373.0" x2="1857.7" y2="373.0" stroke="#111111" stroke-width="2"/>
<circle cx="1839.0" cy="357.7" r="3" fill="#ffffff" stroke="#333333" stroke-width="1"/>
<text x="1839.0" y="407" text-anchor="middle" font-family="Arial, sans-serif" font-size="10" fill="#555555">n=56</text>
<text transform="translate(1835.0 423) rotate(45)" text-anchor="start" font-family="Arial, sans-serif" font-size="12" fill="#222222">results_simulated_annealing_10customer | N10 Inflated FQS</text>
<line x1="1920.1" y1="357.3" x2="1920.1" y2="381.3" stroke="#333333" stroke-width="1.2"/>
<line x1="1908.0" y1="357.3" x2="1932.2" y2="357.3" stroke="#333333" stroke-width="1.2"/>
<line x1="1908.0" y1="381.3" x2="1932.2" y2="381.3" stroke="#333333" stroke-width="1.2"/>
<rect x="1901.5" y="363.2" width="37.3" height="7.4" fill="#72B7B2" fill-opacity="0.70" stroke="#333333" stroke-width="1.2"/>
<line x1="1901.5" y1="365.7" x2="1938.8" y2="365.7" stroke="#111111" stroke-width="2"/>
<circle cx="1920.1" cy="382.2" r="3" fill="#ffffff" stroke="#333333" stroke-width="1"/>
<circle cx="1920.1" cy="381.9" r="3" fill="#ffffff" stroke="#333333" stroke-width="1"/>
<text x="1920.1" y="407" text-anchor="middle" font-family="Arial, sans-serif" font-size="10" fill="#555555">n=56</text>
<text transform="translate(1916.1 423) rotate(45)" text-anchor="start" font-family="Arial, sans-serif" font-size="12" fill="#222222">results_simulated_annealing_10customer | N10 Uncoarsened APS</text>
<line x1="2001.2" y1="359.1" x2="2001.2" y2="378.7" stroke="#333333" stroke-width="1.2"/>
<line x1="1989.1" y1="359.1" x2="2013.3" y2="359.1" stroke="#333333" stroke-width="1.2"/>
<line x1="1989.1" y1="378.7" x2="2013.3" y2="378.7" stroke="#333333" stroke-width="1.2"/>
<rect x="1982.5" y="363.9" width="37.3" height="6.0" fill="#B279A2" fill-opacity="0.70" stroke="#333333" stroke-width="1.2"/>
<line x1="1982.5" y1="365.3" x2="2019.8" y2="365.3" stroke="#111111" stroke-width="2"/>
<circle cx="2001.2" cy="382.4" r="3" fill="#ffffff" stroke="#333333" stroke-width="1"/>
<circle cx="2001.2" cy="381.3" r="3" fill="#ffffff" stroke="#333333" stroke-width="1"/>
<circle cx="2001.2" cy="379.9" r="3" fill="#ffffff" stroke="#333333" stroke-width="1"/>
<circle cx="2001.2" cy="379.2" r="3" fill="#ffffff" stroke="#333333" stroke-width="1"/>
<circle cx="2001.2" cy="379.2" r="3" fill="#ffffff" stroke="#333333" stroke-width="1"/>
<circle cx="2001.2" cy="379.0" r="3" fill="#ffffff" stroke="#333333" stroke-width="1"/>
<circle cx="2001.2" cy="351.1" r="3" fill="#ffffff" stroke="#333333" stroke-width="1"/>
<text x="2001.2" y="407" text-anchor="middle" font-family="Arial, sans-serif" font-size="10" fill="#555555">n=56</text>
<text transform="translate(1997.2 423) rotate(45)" text-anchor="start" font-family="Arial, sans-serif" font-size="12" fill="#222222">results_simulated_annealing_10customer | N10 Uncoarsened FQS</text>
<line x1="2082.2" y1="376.0" x2="2082.2" y2="384.1" stroke="#333333" stroke-width="1.2"/>
<line x1="2070.1" y1="376.0" x2="2094.4" y2="376.0" stroke="#333333" stroke-width="1.2"/>
<line x1="2070.1" y1="384.1" x2="2094.4" y2="384.1" stroke="#333333" stroke-width="1.2"/>
<rect x="2063.6" y="377.5" width="37.3" height="3.4" fill="#FF9DA6" fill-opacity="0.70" stroke="#333333" stroke-width="1.2"/>
<line x1="2063.6" y1="377.8" x2="2100.9" y2="377.8" stroke="#111111" stroke-width="2"/>
<text x="2082.2" y="407" text-anchor="middle" font-family="Arial, sans-serif" font-size="10" fill="#555555">n=56</text>
<text transform="translate(2078.2 423) rotate(45)" text-anchor="start" font-family="Arial, sans-serif" font-size="12" fill="#222222">results_simulated_annealing_5customer | N5 Inflated APS</text>
<line x1="2163.3" y1="376.0" x2="2163.3" y2="384.1" stroke="#333333" stroke-width="1.2"/>
<line x1="2151.2" y1="376.0" x2="2175.4" y2="376.0" stroke="#333333" stroke-width="1.2"/>
<line x1="2151.2" y1="384.1" x2="2175.4" y2="384.1" stroke="#333333" stroke-width="1.2"/>
<rect x="2144.7" y="377.2" width="37.3" height="3.8" fill="#9D755D" fill-opacity="0.70" stroke="#333333" stroke-width="1.2"/>
<line x1="2144.7" y1="377.7" x2="2182.0" y2="377.7" stroke="#111111" stroke-width="2"/>
<text x="2163.3" y="407" text-anchor="middle" font-family="Arial, sans-serif" font-size="10" fill="#555555">n=56</text>
<text transform="translate(2159.3 423) rotate(45)" text-anchor="start" font-family="Arial, sans-serif" font-size="12" fill="#222222">results_simulated_annealing_5customer | N5 Inflated FQS</text>
<line x1="2244.4" y1="374.7" x2="2244.4" y2="384.3" stroke="#333333" stroke-width="1.2"/>
<line x1="2232.3" y1="374.7" x2="2256.5" y2="374.7" stroke="#333333" stroke-width="1.2"/>
<line x1="2232.3" y1="384.3" x2="2256.5" y2="384.3" stroke="#333333" stroke-width="1.2"/>
<rect x="2225.7" y="376.5" width="37.3" height="3.9" fill="#BAB0AC" fill-opacity="0.70" stroke="#333333" stroke-width="1.2"/>
<line x1="2225.7" y1="377.6" x2="2263.0" y2="377.6" stroke="#111111" stroke-width="2"/>
<text x="2244.4" y="407" text-anchor="middle" font-family="Arial, sans-serif" font-size="10" fill="#555555">n=56</text>
<text transform="translate(2240.4 423) rotate(45)" text-anchor="start" font-family="Arial, sans-serif" font-size="12" fill="#222222">results_simulated_annealing_5customer | N5 Uncoarsened APS</text>
<line x1="2325.5" y1="374.9" x2="2325.5" y2="383.9" stroke="#333333" stroke-width="1.2"/>
<line x1="2313.3" y1="374.9" x2="2337.6" y2="374.9" stroke="#333333" stroke-width="1.2"/>
<line x1="2313.3" y1="383.9" x2="2337.6" y2="383.9" stroke="#333333" stroke-width="1.2"/>
<rect x="2306.8" y="376.8" width="37.3" height="3.6" fill="#4C78A8" fill-opacity="0.70" stroke="#333333" stroke-width="1.2"/>
<line x1="2306.8" y1="377.7" x2="2344.1" y2="377.7" stroke="#111111" stroke-width="2"/>
<circle cx="2325.5" cy="386.5" r="3" fill="#ffffff" stroke="#333333" stroke-width="1"/>
<circle cx="2325.5" cy="386.4" r="3" fill="#ffffff" stroke="#333333" stroke-width="1"/>
<text x="2325.5" y="407" text-anchor="middle" font-family="Arial, sans-serif" font-size="10" fill="#555555">n=56</text>
<text transform="translate(2321.5 423) rotate(45)" text-anchor="start" font-family="Arial, sans-serif" font-size="12" fill="#222222">results_simulated_annealing_5customer | N5 Uncoarsened FQS</text>
</svg>
