<?xml version="1.0" encoding="UTF-8"?>
<svg xmlns="http://www.w3.org/2000/svg" width="2400" height="620" viewBox="0 0 2400 620">
<rect x="0" y="0" width="2400" height="620" fill="#ffffff"/>
<text x="1200.0" y="32" text-anchor="middle" font-family="Arial, sans-serif" font-size="20" font-weight="700">Total Route Duration - All Output Files</text>
<text transform="translate(22 233.0) rotate(-90)" text-anchor="middle" font-family="Arial, sans-serif" font-size="15">Total Route Duration</text>
<line x1="96" y1="390.0" x2="2366" y2="390.0" stroke="#d9d9d9" stroke-width="1"/>
<text x="86" y="394.0" text-anchor="end" font-family="Arial, sans-serif" font-size="12" fill="#333333">0</text>
<line x1="96" y1="311.5" x2="2366" y2="311.5" stroke="#d9d9d9" stroke-width="1"/>
<text x="86" y="315.5" text-anchor="end" font-family="Arial, sans-serif" font-size="12" fill="#333333">10,000</text>
<line x1="96" y1="233.0" x2="2366" y2="233.0" stroke="#d9d9d9" stroke-width="1"/>
<text x="86" y="237.0" text-anchor="end" font-family="Arial, sans-serif" font-size="12" fill="#333333">20,000</text>
<line x1="96" y1="154.5" x2="2366" y2="154.5" stroke="#d9d9d9" stroke-width="1"/>
<text x="86" y="158.5" text-anchor="end" font-family="Arial, sans-serif" font-size="12" fill="#333333">30,000</text>
<line x1="96" y1="76.0" x2="2366" y2="76.0" stroke="#d9d9d9" stroke-width="1"/>
<text x="86" y="80.0" text-anchor="end" font-family="Arial, sans-serif" font-size="12" fill="#333333">40,000</text>
<line x1="96" y1="76" x2="96" y2="390" stroke="#333333" stroke-width="1.2"/>
<line x1="96" y1="390" x2="2366" y2="390" stroke="#333333" stroke-width="1.2"/>
<line x1="136.5" y1="365.4" x2="136.5" y2="385.7" stroke="#333333" stroke-width="1.2"/>
<line x1="124.4" y1="365.4" x2="148.7" y2="365.4" stroke="#333333" stroke-width="1.2"/>
<line x1="124.4" y1="385.7" x2="148.7" y2="385.7" stroke="#333333" stroke-width="1.2"/>
<rect x="117.9" y="369.3" width="37.3" height="14.6" fill="#4C78A8" fill-opacity="0.70" stroke="#333333" stroke-width="1.2"/>
<line x1="117.9" y1="376.8" x2="155.2" y2="376.8" stroke="#111111" stroke-width="2"/>
<circle cx="136.5" cy="344.7" r="3" fill="#ffffff" stroke="#333333" stroke-width="1"/>
<circle cx="136.5" cy="338.4" r="3" fill="#ffffff" stroke="#333333" stroke-width="1"/>
<circle cx="136.5" cy="337.8" r="3" fill="#ffffff" stroke="#333333" stroke-width="1"/>
<circle cx="136.5" cy="337.4" r="3" fill="#ffffff" stroke="#333333" stroke-width="1"/>
<circle cx="136.5" cy="336.2" r="3" fill="#ffffff" stroke="#333333" stroke-width="1"/>
<circle cx="136.5" cy="323.7" r="3" fill="#ffffff" stroke="#333333" stroke-width="1"/>
<circle cx="136.5" cy="317.5" r="3" fill="#ffffff" stroke="#333333" stroke-width="1"/>
<circle cx="136.5" cy="308.4" r="3" fill="#ffffff" stroke="#333333" stroke-width="1"/>
<text x="136.5" y="407" text-anchor="middle" font-family="Arial, sans-serif" font-size="10" fill="#555555">n=56</text>
<text transform="translate(132.5 423) rotate(45)" text-anchor="start" font-family="Arial, sans-serif" font-size="12" fill="#222222">result_only_coarsened_simulated_annealing | Inflated APS</text>
<line x1="217.6" y1="347.7" x2="217.6" y2="385.6" stroke="#333333" stroke-width="1.2"/>
<line x1="205.5" y1="347.7" x2="229.7" y2="347.7" stroke="#333333" stroke-width="1.2"/>
<line x1="205.5" y1="385.6" x2="229.7" y2="385.6" stroke="#333333" stroke-width="1.2"/>
<rect x="199.0" y="368.9" width="37.3" height="14.8" fill="#F58518" fill-opacity="0.70" stroke="#333333" stroke-width="1.2"/>
<line x1="199.0" y1="377.3" x2="236.3" y2="377.3" stroke="#111111" stroke-width="2"/>
<circle cx="217.6" cy="346.4" r="3" fill="#ffffff" stroke="#333333" stroke-width="1"/>
<circle cx="217.6" cy="346.0" r="3" fill="#ffffff" stroke="#333333" stroke-width="1"/>
<circle cx="217.6" cy="333.0" r="3" fill="#ffffff" stroke="#333333" stroke-width="1"/>
<circle cx="217.6" cy="324.7" r="3" fill="#ffffff" stroke="#333333" stroke-width="1"/>
<circle cx="217.6" cy="321.7" r="3" fill="#ffffff" stroke="#333333" stroke-width="1"/>
<circle cx="217.6" cy="310.8" r="3" fill="#ffffff" stroke="#333333" stroke-width="1"/>
<text x="217.6" y="407" text-anchor="middle" font-family="Arial, sans-serif" font-size="10" fill="#555555">n=56</text>
<text transform="translate(213.6 423) rotate(45)" text-anchor="start" font-family="Arial, sans-serif" font-size="12" fill="#222222">result_only_coarsened_simulated_annealing | Inflated FQS</text>
<line x1="298.7" y1="201.6" x2="298.7" y2="367.5" stroke="#333333" stroke-width="1.2"/>
<line x1="286.6" y1="201.6" x2="310.8" y2="201.6" stroke="#333333" stroke-width="1.2"/>
<line x1="286.6" y1="367.5" x2="310.8" y2="367.5" stroke="#333333" stroke-width="1.2"/>
<rect x="280.0" y="289.2" width="37.3" height="67.2" fill="#54A24B" fill-opacity="0.70" stroke="#333333" stroke-width="1.2"/>
<line x1="280.0" y1="345.3" x2="317.3" y2="345.3" stroke="#111111" stroke-width="2"/>
<text x="298.7" y="407" text-anchor="middle" font-family="Arial, sans-serif" font-size="10" fill="#555555">n=56</text>
<text transform="translate(294.7 423) rotate(45)" text-anchor="start" font-family="Arial, sans-serif" font-size="12" fill="#222222">results_classical_solvers | Inflated Greedy</text>
<line x1="379.8" y1="264.8" x2="379.8" y2="369.1" stroke="#333333" stroke-width="1.2"/>
<line x1="367.6" y1="264.8" x2="391.9" y2="264.8" stroke="#333333" stroke-width="1.2"/>
<line x1="367.6" y1="369.1" x2="391.9" y2="369.1" stroke="#333333" stroke-width="1.2"/>
<rect x="361.1" y="297.2" width="37.3" height="60.4" fill="#E45756" fill-opacity="0.70" stroke="#333333" stroke-width="1.2"/>
<line x1="361.1" y1="338.3" x2="398.4" y2="338.3" stroke="#111111" stroke-width="2"/>
<text x="379.8" y="407" text-anchor="middle" font-family="Arial, sans-serif" font-size="10" fill="#555555">n=56</text>
<text transform="translate(375.8 423) rotate(45)" text-anchor="start" font-family="Arial, sans-serif" font-size="12" fill="#222222">results_classical_solvers | Inflated Savings</text>
<line x1="460.8" y1="140.7" x2="460.8" y2="368.1" stroke="#333333" stroke-width="1.2"/>
<line x1="448.7" y1="140.7" x2="472.9" y2="140.7" stroke="#333333" stroke-width="1.2"/>
<line x1="448.7" y1="368.1" x2="472.9" y2="368.1" stroke="#333333" stroke-width="1.2"/>
<rect x="442.2" y="266.6" width="37.3" height="87.9" fill="#72B7B2" fill-opacity="0.70" stroke="#333333" stroke-width="1.2"/>
<line x1="442.2" y1="341.9" x2="479.5" y2="341.9" stroke="#111111" stroke-width="2"/>
<circle cx="460.8" cy="129.9" r="3" fill="#ffffff" stroke="#333333" stroke-width="1"/>
<circle cx="460.8" cy="105.6" r="3" fill="#ffffff" stroke="#333333" stroke-width="1"/>
<text x="460.8" y="407" text-anchor="middle" font-family="Arial, sans-serif" font-size="10" fill="#555555">n=56</text>
<text transform="translate(456.8 423) rotate(45)" text-anchor="start" font-family="Arial, sans-serif" font-size="12" fill="#222222">results_classical_solvers | Uncoarsened Greedy</text>
<line x1="541.9" y1="229.6" x2="541.9" y2="372.3" stroke="#333333" stroke-width="1.2"/>
<line x1="529.8" y1="229.6" x2="554.0" y2="229.6" stroke="#333333" stroke-width="1.2"/>
<line x1="529.8" y1="372.3" x2="554.0" y2="372.3" stroke="#333333" stroke-width="1.2"/>
<rect x="523.2" y="300.0" width="37.3" height="61.5" fill="#B279A2" fill-opacity="0.70" stroke="#333333" stroke-width="1.2"/>
<line x1="523.2" y1="330.3" x2="560.5" y2="330.3" stroke="#111111" stroke-width="2"/>
<text x="541.9" y="407" text-anchor="middle" font-family="Arial, sans-serif" font-size="10" fill="#555555">n=56</text>
<text transform="translate(537.9 423) rotate(45)" text-anchor="start" font-family="Arial, sans-serif" font-size="12" fill="#222222">results_classical_solvers | Uncoarsened Savings</text>
<line x1="623.0" y1="375.4" x2="623.0" y2="387.2" stroke="#333333" stroke-width="1.2"/>
<line x1="610.8" y1="375.4" x2="635.1" y2="375.4" stroke="#333333" stroke-width="1.2"/>
<line x1="610.8" y1="387.2" x2="635.1" y2="387.2" stroke="#333333" stroke-width="1.2"/>
<rect x="604.3" y="376.9" width="37.3" height="9.2" fill="#FF9DA6" fill-opacity="0.70" stroke="#333333" stroke-width="1.2"/>
<line x1="604.3" y1="380.3" x2="641.6" y2="380.3" stroke="#111111" stroke-width="2"/>
<circle cx="623.0" cy="361.7" r="3" fill="#ffffff" stroke="#333333" stroke-width="1"/>
<circle cx="623.0" cy="360.3" r="3" fill="#ffffff" stroke="#333333" stroke-width="1"/>
<circle cx="623.0" cy="360.1" r="3" fill="#ffffff" stroke="#333333" stroke-width="1"/>
<circle cx="623.0" cy="359.5" r="3" fill="#ffffff" stroke="#333333" stroke-width="1"/>
<circle cx="623.0" cy="357.9" r="3" fill="#ffffff" stroke="#333333" stroke-width="1"/>
<circle cx="623.0" cy="357.0" r="3" fill="#ffffff" stroke="#333333" stroke-width="1"/>
<circle cx="623.0" cy="353.4" r="3" fill="#ffffff" stroke="#333333" stroke-width="1"/>
<circle cx="623.0" cy="350.8" r="3" fill="#ffffff" stroke="#333333" stroke-width="1"/>
<text x="623.0" y="407" text-anchor="middle" font-family="Arial, sans-serif" font-size="10" fill="#555555">n=56</text>
<text transform="translate(619.0 423) rotate(45)" text-anchor="start" font-family="Arial, sans-serif" font-size="12" fill="#222222">results_dwave10customer | N10 Inflated APS</text>
<line x1="704.0" y1="364.4" x2="704.0" y2="387.1" stroke="#333333" stroke-width="1.2"/>
<line x1="691.9" y1="364.4" x2="716.2" y2="364.4" stroke="#333333" stroke-width="1.2"/>
<line x1="691.9" y1="387.1" x2="716.2" y2="387.1" stroke="#333333" stroke-width="1.2"/>
<rect x="685.4" y="376.8" width="37.3" height="9.2" fill="#9D755D" fill-opacity="0.70" stroke="#333333" stroke-width="1.2"/>
<line x1="685.4" y1="380.6" x2="722.7" y2="380.6" stroke="#111111" stroke-width="2"/>
<circle cx="704.0" cy="357.9" r="3" fill="#ffffff" stroke="#333333" stroke-width="1"/>
<circle cx="704.0" cy="355.7" r="3" fill="#ffffff" stroke="#333333" stroke-width="1"/>
<circle cx="704.0" cy="353.4" r="3" fill="#ffffff" stroke="#333333" stroke-width="1"/>
<circle cx="704.0" cy="352.0" r="3" fill="#ffffff" stroke="#333333" stroke-width="1"/>
<text x="704.0" y="407" text-anchor="middle" font-family="Arial, sans-serif" font-size="10" fill="#555555">n=56</text>
<text transform="translate(700.0 423) rotate(45)" text-anchor="start" font-family="Arial, sans-serif" font-size="12" fill="#222222">results_dwave10customer | N10 Inflated FQS</text>
<line x1="785.1" y1="369.3" x2="785.1" y2="385.8" stroke="#333333" stroke-width="1.2"/>
<line x1="773.0" y1="369.3" x2="797.2" y2="369.3" stroke="#333333" stroke-width="1.2"/>
<line x1="773.0" y1="385.8" x2="797.2" y2="385.8" stroke="#333333" stroke-width="1.2"/>
<rect x="766.5" y="373.3" width="37.3" height="11.4" fill="#BAB0AC" fill-opacity="0.70" stroke="#333333" stroke-width="1.2"/>
<line x1="766.5" y1="378.9" x2="803.8" y2="378.9" stroke="#111111" stroke-width="2"/>
<circle cx="785.1" cy="353.8" r="3" fill="#ffffff" stroke="#333333" stroke-width="1"/>
<circle cx="785.1" cy="353.3" r="3" fill="#ffffff" stroke="#333333" stroke-width="1"/>
<circle cx="785.1" cy="347.6" r="3" fill="#ffffff" stroke="#333333" stroke-width="1"/>
<circle cx="785.1" cy="345.2" r="3" fill="#ffffff" stroke="#333333" stroke-width="1"/>
<circle cx="785.1" cy="344.3" r="3" fill="#ffffff" stroke="#333333" stroke-width="1"/>
<circle cx="785.1" cy="340.9" r="3" fill="#ffffff" stroke="#333333" stroke-width="1"/>
<circle cx="785.1" cy="336.3" r="3" fill="#ffffff" stroke="#333333" stroke-width="1"/>
<circle cx="785.1" cy="315.8" r="3" fill="#ffffff" stroke="#333333" stroke-width="1"/>
<text x="785.1" y="407" text-anchor="middle" font-family="Arial, sans-serif" font-size="10" fill="#555555">n=56</text>
<text transform="translate(781.1 423) rotate(45)" text-anchor="start" font-family="Arial, sans-serif" font-size="12" fill="#222222">results_dwave10customer | N10 Uncoarsened APS</text>
<line x1="866.2" y1="359.6" x2="866.2" y2="386.8" stroke="#333333" stroke-width="1.2"/>
<line x1="854.1" y1="359.6" x2="878.3" y2="359.6" stroke="#333333" stroke-width="1.2"/>
<line x1="854.1" y1="386.8" x2="878.3" y2="386.8" stroke="#333333" stroke-width="1.2"/>
<rect x="847.5" y="373.8" width="37.3" height="10.8" fill="#4C78A8" fill-opacity="0.70" stroke="#333333" stroke-width="1.2"/>
<line x1="847.5" y1="378.7" x2="884.8" y2="378.7" stroke="#111111" stroke-width="2"/>
<circle cx="866.2" cy="348.0" r="3" fill="#ffffff" stroke="#333333" stroke-width="1"/>
<circle cx="866.2" cy="343.8" r="3" fill="#ffffff" stroke="#333333" stroke-width="1"/>
<circle cx="866.2" cy="341.0" r="3" fill="#ffffff" stroke="#333333" stroke-width="1"/>
<circle cx="866.2" cy="340.3" r="3" fill="#ffffff" stroke="#333333" stroke-width="1"/>
<circle cx="866.2" cy="340.0" r="3" fill="#ffffff" stroke="#333333" stroke-width="1"/>
<circle cx="866.2" cy="324.4" r="3" fill="#ffffff" stroke="#333333" stroke-width="1"/>
<text x="866.2" y="407" text-anchor="middle" font-family="Arial, sans-serif" font-size="10" fill="#555555">n=56</text>
<text transform="translate(862.2 423) rotate(45)" text-anchor="start" font-family="Arial, sans-serif" font-size="12" fill="#222222">results_dwave10customer | N10 Uncoarsened FQS</text>
<line x1="947.2" y1="375.8" x2="947.2" y2="388.4" stroke="#333333" stroke-width="1.2"/>
<line x1="935.1" y1="375.8" x2="959.4" y2="375.8" stroke="#333333" stroke-width="1.2"/>
<line x1="935.1" y1="388.4" x2="959.4" y2="388.4" stroke="#333333" stroke-width="1.2"/>
<rect x="928.6" y="380.3" width="37.3" height="7.1" fill="#F58518" fill-opacity="0.70" stroke="#333333" stroke-width="1.2"/>
<line x1="928.6" y1="383.6" x2="965.9" y2="383.6" stroke="#111111" stroke-width="2"/>
<text x="947.2" y="407" text-anchor="middle" font-family="Arial, sans-serif" font-size="10" fill="#555555">n=56</text>
<text transform="translate(943.2 423) rotate(45)" text-anchor="start" font-family="Arial, sans-serif" font-size="12" fill="#222222">results_dwave5customer | N5 Inflated APS</text>
<line x1="1028.3" y1="375.8" x2="1028.3" y2="388.2" stroke="#333333" stroke-width="1.2"/>
<line x1="1016.2" y1="375.8" x2="1040.4" y2="375.8" stroke="#333333" stroke-width="1.2"/>
<line x1="1016.2" y1="388.2" x2="1040.4" y2="388.2" stroke="#333333" stroke-width="1.2"/>
<rect x="1009.7" y="380.3" width="37.3" height="7.3" fill="#54A24B" fill-opacity="0.70" stroke="#333333" stroke-width="1.2"/>
<line x1="1009.7" y1="383.6" x2="1047.0" y2="383.6" stroke="#111111" stroke-width="2"/>
<text x="1028.3" y="407" text-anchor="middle" font-family="Arial, sans-serif" font-size="10" fill="#555555">n=56</text>
<text transform="translate(1024.3 423) rotate(45)" text-anchor="start" font-family="Arial, sans-serif" font-size="12" fill="#222222">results_dwave5customer | N5 Inflated FQS</text>
<line x1="1109.4" y1="370.4" x2="1109.4" y2="388.7" stroke="#333333" stroke-width="1.2"/>
<line x1="1097.3" y1="370.4" x2="1121.5" y2="370.4" stroke="#333333" stroke-width="1.2"/>
<line x1="1097.3" y1="388.7" x2="1121.5" y2="388.7" stroke="#333333" stroke-width="1.2"/>
<rect x="1090.7" y="380.2" width="37.3" height="7.3" fill="#E45756" fill-opacity="0.70" stroke="#333333" stroke-width="1.2"/>
<line x1="1090.7" y1="383.6" x2="1128.0" y2="383.6" stroke="#111111" stroke-width="2"/>
<text x="1109.4" y="407" text-anchor="middle" font-family="Arial, sans-serif" font-size="10" fill="#555555">n=56</text>
<text transform="translate(1105.4 423) rotate(45)" text-anchor="start" font-family="Arial, sans-serif" font-size="12" fill="#222222">results_dwave5customer | N5 Uncoarsened APS</text>
<line x1="1190.5" y1="374.6" x2="1190.5" y2="388.5" stroke="#333333" stroke-width="1.2"/>
<line x1="1178.3" y1="374.6" x2="1202.6" y2="374.6" stroke="#333333" stroke-width="1.2"/>
<line x1="1178.3" y1="388.5" x2="1202.6" y2="388.5" stroke="#333333" stroke-width="1.2"/>
<rect x="1171.8" y="380.7" width="37.3" height="6.7" fill="#72B7B2" fill-opacity="0.70" stroke="#333333" stroke-width="1.2"/>
<line x1="1171.8" y1="383.6" x2="1209.1" y2="383.6" stroke="#111111" stroke-width="2"/>
<circle cx="1190.5" cy="369.4" r="3" fill="#ffffff" stroke="#333333" stroke-width="1"/>
<circle cx="1190.5" cy="369.1" r="3" fill="#ffffff" stroke="#333333" stroke-width="1"/>
<text x="1190.5" y="407" text-anchor="middle" font-family="Arial, sans-serif" font-size="10" fill="#555555">n=56</text>
<text transform="translate(1186.5 423) rotate(45)" text-anchor="start" font-family="Arial, sans-serif" font-size="12" fill="#222222">results_dwave5customer | N5 Uncoarsened FQS</text>
<line x1="1271.5" y1="308.4" x2="1271.5" y2="375.4" stroke="#333333" stroke-width="1.2"/>
<line x1="1259.4" y1="308.4" x2="1283.7" y2="308.4" stroke="#333333" stroke-width="1.2"/>
<line x1="1259.4" y1="375.4" x2="1283.7" y2="375.4" stroke="#333333" stroke-width="1.2"/>
<rect x="1252.9" y="314.7" width="37.3" height="55.9" fill="#B279A2" fill-opacity="0.70" stroke="#333333" stroke-width="1.2"/>
<line x1="1252.9" y1="367.4" x2="1290.2" y2="367.4" stroke="#111111" stroke-width="2"/>
<text x="1271.5" y="407" text-anchor="middle" font-family="Arial, sans-serif" font-size="10" fill="#555555">n=56</text>
<text transform="translate(1267.5 423) rotate(45)" text-anchor="start" font-family="Arial, sans-serif" font-size="12" fill="#222222">results_ortools_benchmark | Inflated OR-Tools</text>
<line x1="1352.6" y1="308.4" x2="1352.6" y2="375.4" stroke="#333333" stroke-width="1.2"/>
<line x1="1340.5" y1="308.4" x2="1364.7" y2="308.4" stroke="#333333" stroke-width="1.2"/>
<line x1="1340.5" y1="375.4" x2="1364.7" y2="375.4" stroke="#333333" stroke-width="1.2"/>
<rect x="1334.0" y="314.7" width="37.3" height="55.8" fill="#FF9DA6" fill-opacity="0.70" stroke="#333333" stroke-width="1.2"/>
<line x1="1334.0" y1="367.4" x2="1371.3" y2="367.4" stroke="#111111" stroke-width="2"/>
<text x="1352.6" y="407" text-anchor="middle" font-family="Arial, sans-serif" font-size="10" fill="#555555">n=56</text>
<text transform="translate(1348.6 423) rotate(45)" text-anchor="start" font-family="Arial, sans-serif" font-size="12" fill="#222222">results_ortools_benchmark | Uncoarsened OR-Tools</text>
<line x1="1433.7" y1="381.9" x2="1433.7" y2="381.9" stroke="#333333" stroke-width="1.2"/>
<line x1="1421.6" y1="381.9" x2="1445.8" y2="381.9" stroke="#333333" stroke-width="1.2"/>
<line x1="1421.6" y1="381.9" x2="1445.8" y2="381.9" stroke="#333333" stroke-width="1.2"/>
<rect x="1415.0" y="381.9" width="37.3" height="1.5" fill="#9D755D" fill-opacity="0.70" stroke="#333333" stroke-width="1.2"/>
<line x1="1415.0" y1="381.9" x2="1452.3" y2="381.9" stroke="#111111" stroke-width="2"/>
<text x="1433.7" y="407" text-anchor="middle" font-family="Arial, sans-serif" font-size="10" fill="#555555">n=1</text>
<text transform="translate(1429.7 423) rotate(45)" text-anchor="start" font-family="Arial, sans-serif" font-size="12" fill="#222222">results_ortools_quantum_benchmark | N10 Uncoarsened OR-Tools</text>
<line x1="1514.8" y1="381.9" x2="1514.8" y2="381.9" stroke="#333333" stroke-width="1.2"/>
<line x1="1502.6" y1="381.9" x2="1526.9" y2="381.9" stroke="#333333" stroke-width="1.2"/>
<line x1="1502.6" y1="381.9" x2="1526.9" y2="381.9" stroke="#333333" stroke-width="1.2"/>
<rect x="1496.1" y="381.9" width="37.3" height="1.5" fill="#BAB0AC" fill-opacity="0.70" stroke="#333333" stroke-width="1.2"/>
<line x1="1496.1" y1="381.9" x2="1533.4" y2="381.9" stroke="#111111" stroke-width="2"/>
<text x="1514.8" y="407" text-anchor="middle" font-family="Arial, sans-serif" font-size="10" fill="#555555">n=1</text>
<text transform="translate(1510.8 423) rotate(45)" text-anchor="start" font-family="Arial, sans-serif" font-size="12" fill="#222222">results_ortools_quantum_benchmark | N5 Uncoarsened OR-Tools</text>
<line x1="1595.8" y1="210.6" x2="1595.8" y2="366.5" stroke="#333333" stroke-width="1.2"/>
<line x1="1583.7" y1="210.6" x2="1607.9" y2="210.6" stroke="#333333" stroke-width="1.2"/>
<line x1="1583.7" y1="366.5" x2="1607.9" y2="366.5" stroke="#333333" stroke-width="1.2"/>
<rect x="1577.2" y="283.5" width="37.3" height="74.0" fill="#4C78A8" fill-opacity="0.70" stroke="#333333" stroke-width="1.2"/>
<line x1="1577.2" y1="350.3" x2="1614.5" y2="350.3" stroke="#111111" stroke-width="2"/>
<text x="1595.8" y="407" text-anchor="middle" font-family="Arial, sans-serif" font-size="10" fill="#555555">n=56</text>
<text transform="translate(1591.8 423) rotate(45)" text-anchor="start" font-family="Arial, sans-serif" font-size="12" fill="#222222">results_simulated_annealing_100customer | N100 Inflated APS</text>
<line x1="1676.9" y1="209.5" x2="1676.9" y2="366.2" stroke="#333333" stroke-width="1.2"/>
<line x1="1664.8" y1="209.5" x2="1689.0" y2="209.5" stroke="#333333" stroke-width="1.2"/>
<line x1="1664.8" y1="366.2" x2="1689.0" y2="366.2" stroke="#333333" stroke-width="1.2"/>
<rect x="1658.2" y="283.4" width="37.3" height="73.4" fill="#F58518" fill-opacity="0.70" stroke="#333333" stroke-width="1.2"/>
<line x1="1658.2" y1="350.4" x2="1695.5" y2="350.4" stroke="#111111" stroke-width="2"/>
<text x="1676.9" y="407" text-anchor="middle" font-family="Arial, sans-serif" font-size="10" fill="#555555">n=56</text>
<text transform="translate(1672.9 423) rotate(45)" text-anchor="start" font-family="Arial, sans-serif" font-size="12" fill="#222222">results_simulated_annealing_100customer | N100 Inflated FQS</text>
<line x1="1758.0" y1="364.8" x2="1758.0" y2="387.2" stroke="#333333" stroke-width="1.2"/>
<line x1="1745.8" y1="364.8" x2="1770.1" y2="364.8" stroke="#333333" stroke-width="1.2"/>
<line x1="1745.8" y1="387.2" x2="1770.1" y2="387.2" stroke="#333333" stroke-width="1.2"/>
<rect x="1739.3" y="376.6" width="37.3" height="9.8" fill="#54A24B" fill-opacity="0.70" stroke="#333333" stroke-width="1.2"/>
<line x1="1739.3" y1="380.7" x2="1776.6" y2="380.7" stroke="#111111" stroke-width="2"/>
<circle cx="1758.0" cy="360.3" r="3" fill="#ffffff" stroke="#333333" stroke-width="1"/>
<circle cx="1758.0" cy="357.9" r="3" fill="#ffffff" stroke="#333333" stroke-width="1"/>
<circle cx="1758.0" cy="357.0" r="3" fill="#ffffff" stroke="#333333" stroke-width="1"/>
<circle cx="1758.0" cy="355.7" r="3" fill="#ffffff" stroke="#333333" stroke-width="1"/>
<circle cx="1758.0" cy="353.4" r="3" fill="#ffffff" stroke="#333333" stroke-width="1"/>
<circle cx="1758.0" cy="351.8" r="3" fill="#ffffff" stroke="#333333" stroke-width="1"/>
<text x="1758.0" y="407" text-anchor="middle" font-family="Arial, sans-serif" font-size="10" fill="#555555">n=56</text>
<text transform="translate(1754.0 423) rotate(45)" text-anchor="start" font-family="Arial, sans-serif" font-size="12" fill="#222222">results_simulated_annealing_10customer | N10 Inflated APS</text>
<line x1="1839.0" y1="364.4" x2="1839.0" y2="387.4" stroke="#333333" stroke-width="1.2"/>
<line x1="1826.9" y1="364.4" x2="1851.2" y2="364.4" stroke="#333333" stroke-width="1.2"/>
<line x1="1826.9" y1="387.4" x2="1851.2" y2="387.4" stroke="#333333" stroke-width="1.2"/>
<rect x="1820.4" y="377.6" width="37.3" height="8.8" fill="#E45756" fill-opacity="0.70" stroke="#333333" stroke-width="1.2"/>
<line x1="1820.4" y1="380.9" x2="1857.7" y2="380.9" stroke="#111111" stroke-width="2"/>
<circle cx="1839.0" cy="359.5" r="3" fill="#ffffff" stroke="#333333" stroke-width="1"/>
<circle cx="1839.0" cy="355.7" r="3" fill="#ffffff" stroke="#333333" stroke-width="1"/>
<circle cx="1839.0" cy="352.0" r="3" fill="#ffffff" stroke="#333333" stroke-width="1"/>
<circle cx="1839.0" cy="350.9" r="3" fill="#ffffff" stroke="#333333" stroke-width="1"/>
<text x="1839.0" y="407" text-anchor="middle" font-family="Arial, sans-serif" font-size="10" fill="#555555">n=56</text>
<text transform="translate(1835.0 423) rotate(45)" text-anchor="start" font-family="Arial, sans-serif" font-size="12" fill="#222222">results_simulated_annealing_10customer | N10 Inflated FQS</text>
<line x1="1920.1" y1="370.3" x2="1920.1" y2="386.5" stroke="#333333" stroke-width="1.2"/>
<line x1="1908.0" y1="370.3" x2="1932.2" y2="370.3" stroke="#333333" stroke-width="1.2"/>
<line x1="1908.0" y1="386.5" x2="1932.2" y2="386.5" stroke="#333333" stroke-width="1.2"/>
<rect x="1901.5" y="375.3" width="37.3" height="10.0" fill="#72B7B2" fill-opacity="0.70" stroke="#333333" stroke-width="1.2"/>
<line x1="1901.5" y1="380.3" x2="1938.8" y2="380.3" stroke="#111111" stroke-width="2"/>
<circle cx="1920.1" cy="359.5" r="3" fill="#ffffff" stroke="#333333" stroke-width="1"/>
<circle cx="1920.1" cy="346.7" r="3" fill="#ffffff" stroke="#333333" stroke-width="1"/>
<circle cx="1920.1" cy="342.7" r="3" fill="#ffffff" stroke="#333333" stroke-width="1"/>
<circle cx="1920.1" cy="342.5" r="3" fill="#ffffff" stroke="#333333" stroke-width="1"/>
<circle cx="1920.1" cy="342.3" r="3" fill="#ffffff" stroke="#333333" stroke-width="1"/>
<circle cx="1920.1" cy="337.8" r="3" fill="#ffffff" stroke="#333333" stroke-width="1"/>
<circle cx="1920.1" cy="334.5" r="3" fill="#ffffff" stroke="#333333" stroke-width="1"/>
<circle cx="1920.1" cy="321.5" r="3" fill="#ffffff" stroke="#333333" stroke-width="1"/>
<text x="1920.1" y="407" text-anchor="middle" font-family="Arial, sans-serif" font-size="10" fill="#555555">n=56</text>
<text transform="translate(1916.1 423) rotate(45)" text-anchor="start" font-family="Arial, sans-serif" font-size="12" fill="#222222">results_simulated_annealing_10customer | N10 Uncoarsened APS</text>
<line x1="2001.2" y1="363.6" x2="2001.2" y2="386.4" stroke="#333333" stroke-width="1.2"/>
<line x1="1989.1" y1="363.6" x2="2013.3" y2="363.6" stroke="#333333" stroke-width="1.2"/>
<line x1="1989.1" y1="386.4" x2="2013.3" y2="386.4" stroke="#333333" stroke-width="1.2"/>
<rect x="1982.5" y="374.8" width="37.3" height="10.2" fill="#B279A2" fill-opacity="0.70" stroke="#333333" stroke-width="1.2"/>
<line x1="1982.5" y1="380.0" x2="2019.8" y2="380.0" stroke="#111111" stroke-width="2"/>
<circle cx="2001.2" cy="350.1" r="3" fill="#ffffff" stroke="#333333" stroke-width="1"/>
<circle cx="2001.2" cy="346.6" r="3" fill="#ffffff" stroke="#333333" stroke-width="1"/>
<circle cx="2001.2" cy="345.0" r="3" fill="#ffffff" stroke="#333333" stroke-width="1"/>
<circle cx="2001.2" cy="341.7" r="3" fill="#ffffff" stroke="#333333" stroke-width="1"/>
<circle cx="2001.2" cy="341.2" r="3" fill="#ffffff" stroke="#333333" stroke-width="1"/>
<circle cx="2001.2" cy="337.3" r="3" fill="#ffffff" stroke="#333333" stroke-width="1"/>
<circle cx="2001.2" cy="323.6" r="3" fill="#ffffff" stroke="#333333" stroke-width="1"/>
<text x="2001.2" y="407" text-anchor="middle" font-family="Arial, sans-serif" font-size="10" fill="#555555">n=56</text>
<text transform="translate(1997.2 423) rotate(45)" text-anchor="start" font-family="Arial, sans-serif" font-size="12" fill="#222222">results_simulated_annealing_10customer | N10 Uncoarsened FQS</text>
<line x1="2082.2" y1="375.8" x2="2082.2" y2="388.4" stroke="#333333" stroke-width="1.2"/>
<line x1="2070.1" y1="375.8" x2="2094.4" y2="375.8" stroke="#333333" stroke-width="1.2"/>
<line x1="2070.1" y1="388.4" x2="2094.4" y2="388.4" stroke="#333333" stroke-width="1.2"/>
<rect x="2063.6" y="380.3" width="37.3" height="7.1" fill="#FF9DA6" fill-opacity="0.70" stroke="#333333" stroke-width="1.2"/>
<line x1="2063.6" y1="383.6" x2="2100.9" y2="383.6" stroke="#111111" stroke-width="2"/>
<text x="2082.2" y="407" text-anchor="middle" font-family="Arial, sans-serif" font-size="10" fill="#555555">n=56</text>
<text transform="translate(2078.2 423) rotate(45)" text-anchor="start" font-family="Arial, sans-serif" font-size="12" fill="#222222">results_simulated_annealing_5customer | N5 Inflated APS</text>
<line x1="2163.3" y1="375.8" x2="2163.3" y2="388.7" stroke="#333333" stroke-width="1.2"/>
<line x1="2151.2" y1="375.8" x2="2175.4" y2="375.8" stroke="#333333" stroke-width="1.2"/>
<line x1="2151.2" y1="388.7" x2="2175.4" y2="388.7" stroke="#333333" stroke-width="1.2"/>
<rect x="2144.7" y="380.3" width="37.3" height="7.0" fill="#9D755D" fill-opacity="0.70" stroke="#333333" stroke-width="1.2"/>
<line x1="2144.7" y1="383.6" x2="2182.0" y2="383.6" stroke="#111111" stroke-width="2"/>
<text x="2163.3" y="407" text-anchor="middle" font-family="Arial, sans-serif" font-size="10" fill="#555555">n=56</text>
<text transform="translate(2159.3 423) rotate(45)" text-anchor="start" font-family="Arial, sans-serif" font-size="12" fill="#222222">results_simulated_annealing_5customer | N5 Inflated FQS</text>
<line x1="2244.4" y1="369.1" x2="2244.4" y2="388.4" stroke="#333333" stroke-width="1.2"/>
<line x1="2232.3" y1="369.1" x2="2256.5" y2="369.1" stroke="#333333" stroke-width="1.2"/>
<line x1="2232.3" y1="388.4" x2="2256.5" y2="388.4" stroke="#333333" stroke-width="1.2"/>
<rect x="2225.7" y="379.9" width="37.3" height="7.5" fill="#BAB0AC" fill-opacity="0.70" stroke="#333333" stroke-width="1.2"/>
<line x1="2225.7" y1="383.7" x2="2263.0" y2="383.7" stroke="#111111" stroke-width="2"/>
<text x="2244.4" y="407" text-anchor="middle" font-family="Arial, sans-serif" font-size="10" fill="#555555">n=56</text>
<text transform="translate(2240.4 423) rotate(45)" text-anchor="start" font-family="Arial, sans-serif" font-size="12" fill="#222222">results_simulated_annealing_5customer | N5 Uncoarsened APS</text>
<line x1="2325.5" y1="370.4" x2="2325.5" y2="388.7" stroke="#333333" stroke-width="1.2"/>
<line x1="2313.3" y1="370.4" x2="2337.6" y2="370.4" stroke="#333333" stroke-width="1.2"/>
<line x1="2313.3" y1="388.7" x2="2337.6" y2="388.7" stroke="#333333" stroke-width="1.2"/>
<rect x="2306.8" y="379.4" width="37.3" height="7.9" fill="#4C78A8" fill-opacity="0.70" stroke="#333333" stroke-width="1.2"/>
<line x1="2306.8" y1="383.5" x2="2344.1" y2="383.5" stroke="#111111" stroke-width="2"/>
<text x="2325.5" y="407" text-anchor="middle" font-family="Arial, sans-serif" font-size="10" fill="#555555">n=56</text>
<text transform="translate(2321.5 423) rotate(45)" text-anchor="start" font-family="Arial, sans-serif" font-size="12" fill="#222222">results_simulated_annealing_5customer | N5 Uncoarsened FQS</text>
</svg>
