<?xml version="1.0" encoding="UTF-8"?>
<svg xmlns="http://www.w3.org/2000/svg" width="1113" height="905" viewBox="0 0 1113 905">
<rect x="0" y="0" width="1113" height="905" fill="#ffffff"/>
<text x="556.5" y="32" text-anchor="middle" font-family="Arial, sans-serif" font-size="42" font-weight="700">Total Waiting Time</text>
<text transform="translate(22 355.0) rotate(-90)" text-anchor="middle" font-family="Arial, sans-serif" font-size="34">Total Waiting Time</text>
<line x1="170" y1="565.0" x2="1057" y2="565.0" stroke="#d9d9d9" stroke-width="1"/>
<text x="156" y="574.0" text-anchor="end" font-family="Arial, sans-serif" font-size="28" fill="#333333">0</text>
<line x1="170" y1="460.0" x2="1057" y2="460.0" stroke="#d9d9d9" stroke-width="1"/>
<text x="156" y="469.0" text-anchor="end" font-family="Arial, sans-serif" font-size="28" fill="#333333">2,000</text>
<line x1="170" y1="355.0" x2="1057" y2="355.0" stroke="#d9d9d9" stroke-width="1"/>
<text x="156" y="364.0" text-anchor="end" font-family="Arial, sans-serif" font-size="28" fill="#333333">4,000</text>
<line x1="170" y1="250.0" x2="1057" y2="250.0" stroke="#d9d9d9" stroke-width="1"/>
<text x="156" y="259.0" text-anchor="end" font-family="Arial, sans-serif" font-size="28" fill="#333333">6,000</text>
<line x1="170" y1="145.0" x2="1057" y2="145.0" stroke="#d9d9d9" stroke-width="1"/>
<text x="156" y="154.0" text-anchor="end" font-family="Arial, sans-serif" font-size="28" fill="#333333">8,000</text>
<line x1="170" y1="145" x2="170" y2="565" stroke="#333333" stroke-width="1.2"/>
<line x1="170" y1="565" x2="1057" y2="565" stroke="#333333" stroke-width="1.2"/>
<line x1="258.7" y1="447.5" x2="258.7" y2="563.5" stroke="#333333" stroke-width="1.2"/>
<line x1="242.4" y1="447.5" x2="274.9" y2="447.5" stroke="#333333" stroke-width="1.2"/>
<line x1="242.4" y1="563.5" x2="274.9" y2="563.5" stroke="#333333" stroke-width="1.2"/>
<rect x="233.7" y="498.6" width="50.0" height="56.7" fill="#4C78A8" fill-opacity="0.70" stroke="#333333" stroke-width="1.2"/>
<line x1="233.7" y1="524.8" x2="283.7" y2="524.8" stroke="#111111" stroke-width="2"/>
<circle cx="258.7" cy="361.0" r="3" fill="#ffffff" stroke="#333333" stroke-width="1"/>
<circle cx="258.7" cy="337.4" r="3" fill="#ffffff" stroke="#333333" stroke-width="1"/>
<circle cx="258.7" cy="324.5" r="3" fill="#ffffff" stroke="#333333" stroke-width="1"/>
<circle cx="258.7" cy="303.7" r="3" fill="#ffffff" stroke="#333333" stroke-width="1"/>
<circle cx="258.7" cy="300.5" r="3" fill="#ffffff" stroke="#333333" stroke-width="1"/>
<circle cx="258.7" cy="276.6" r="3" fill="#ffffff" stroke="#333333" stroke-width="1"/>
<circle cx="258.7" cy="181.7" r="3" fill="#ffffff" stroke="#333333" stroke-width="1"/>
<text x="258.7" y="595" text-anchor="middle" font-family="Arial, sans-serif" font-size="22" fill="#555555">n=56</text>
<text transform="translate(250.7 647) rotate(45)" text-anchor="start" font-family="Arial, sans-serif" font-size="28" fill="#222222">Unc. FQS</text>
<line x1="436.1" y1="457.0" x2="436.1" y2="563.6" stroke="#333333" stroke-width="1.2"/>
<line x1="419.9" y1="457.0" x2="452.4" y2="457.0" stroke="#333333" stroke-width="1.2"/>
<line x1="419.9" y1="563.6" x2="452.4" y2="563.6" stroke="#333333" stroke-width="1.2"/>
<rect x="411.1" y="517.3" width="50.0" height="40.9" fill="#F58518" fill-opacity="0.70" stroke="#333333" stroke-width="1.2"/>
<line x1="411.1" y1="528.3" x2="461.1" y2="528.3" stroke="#111111" stroke-width="2"/>
<circle cx="436.1" cy="454.0" r="3" fill="#ffffff" stroke="#333333" stroke-width="1"/>
<circle cx="436.1" cy="451.6" r="3" fill="#ffffff" stroke="#333333" stroke-width="1"/>
<circle cx="436.1" cy="418.0" r="3" fill="#ffffff" stroke="#333333" stroke-width="1"/>
<circle cx="436.1" cy="391.1" r="3" fill="#ffffff" stroke="#333333" stroke-width="1"/>
<circle cx="436.1" cy="366.4" r="3" fill="#ffffff" stroke="#333333" stroke-width="1"/>
<circle cx="436.1" cy="360.0" r="3" fill="#ffffff" stroke="#333333" stroke-width="1"/>
<text x="436.1" y="595" text-anchor="middle" font-family="Arial, sans-serif" font-size="22" fill="#555555">n=56</text>
<text transform="translate(428.1 647) rotate(45)" text-anchor="start" font-family="Arial, sans-serif" font-size="28" fill="#222222">Coars. FQS</text>
<line x1="613.5" y1="487.1" x2="613.5" y2="560.5" stroke="#333333" stroke-width="1.2"/>
<line x1="597.2" y1="487.1" x2="629.8" y2="487.1" stroke="#333333" stroke-width="1.2"/>
<line x1="597.2" y1="560.5" x2="629.8" y2="560.5" stroke="#333333" stroke-width="1.2"/>
<rect x="588.5" y="506.8" width="50.0" height="49.9" fill="#54A24B" fill-opacity="0.70" stroke="#333333" stroke-width="1.2"/>
<line x1="588.5" y1="523.9" x2="638.5" y2="523.9" stroke="#111111" stroke-width="2"/>
<circle cx="613.5" cy="421.0" r="3" fill="#ffffff" stroke="#333333" stroke-width="1"/>
<circle cx="613.5" cy="334.9" r="3" fill="#ffffff" stroke="#333333" stroke-width="1"/>
<circle cx="613.5" cy="311.9" r="3" fill="#ffffff" stroke="#333333" stroke-width="1"/>
<circle cx="613.5" cy="310.9" r="3" fill="#ffffff" stroke="#333333" stroke-width="1"/>
<circle cx="613.5" cy="308.6" r="3" fill="#ffffff" stroke="#333333" stroke-width="1"/>
<circle cx="613.5" cy="275.5" r="3" fill="#ffffff" stroke="#333333" stroke-width="1"/>
<circle cx="613.5" cy="255.6" r="3" fill="#ffffff" stroke="#333333" stroke-width="1"/>
<circle cx="613.5" cy="171.4" r="3" fill="#ffffff" stroke="#333333" stroke-width="1"/>
<text x="613.5" y="595" text-anchor="middle" font-family="Arial, sans-serif" font-size="22" fill="#555555">n=56</text>
<text transform="translate(605.5 647) rotate(45)" text-anchor="start" font-family="Arial, sans-serif" font-size="28" fill="#222222">Unc. APS</text>
<line x1="790.9" y1="454.0" x2="790.9" y2="563.1" stroke="#333333" stroke-width="1.2"/>
<line x1="774.6" y1="454.0" x2="807.1" y2="454.0" stroke="#333333" stroke-width="1.2"/>
<line x1="774.6" y1="563.1" x2="807.1" y2="563.1" stroke="#333333" stroke-width="1.2"/>
<rect x="765.9" y="515.9" width="50.0" height="43.3" fill="#E45756" fill-opacity="0.70" stroke="#333333" stroke-width="1.2"/>
<line x1="765.9" y1="524.7" x2="815.9" y2="524.7" stroke="#111111" stroke-width="2"/>
<circle cx="790.9" cy="422.2" r="3" fill="#ffffff" stroke="#333333" stroke-width="1"/>
<circle cx="790.9" cy="407.5" r="3" fill="#ffffff" stroke="#333333" stroke-width="1"/>
<circle cx="790.9" cy="399.5" r="3" fill="#ffffff" stroke="#333333" stroke-width="1"/>
<circle cx="790.9" cy="391.1" r="3" fill="#ffffff" stroke="#333333" stroke-width="1"/>
<circle cx="790.9" cy="376.9" r="3" fill="#ffffff" stroke="#333333" stroke-width="1"/>
<circle cx="790.9" cy="366.4" r="3" fill="#ffffff" stroke="#333333" stroke-width="1"/>
<text x="790.9" y="595" text-anchor="middle" font-family="Arial, sans-serif" font-size="22" fill="#555555">n=56</text>
<text transform="translate(782.9 647) rotate(45)" text-anchor="start" font-family="Arial, sans-serif" font-size="28" fill="#222222">Coars. APS</text>
<line x1="968.3" y1="540.7" x2="968.3" y2="565.0" stroke="#333333" stroke-width="1.2"/>
<line x1="952.1" y1="540.7" x2="984.6" y2="540.7" stroke="#333333" stroke-width="1.2"/>
<line x1="952.1" y1="565.0" x2="984.6" y2="565.0" stroke="#333333" stroke-width="1.2"/>
<rect x="943.3" y="542.3" width="50.0" height="18.4" fill="#72B7B2" fill-opacity="0.70" stroke="#333333" stroke-width="1.2"/>
<line x1="943.3" y1="551.7" x2="993.3" y2="551.7" stroke="#111111" stroke-width="2"/>
<circle cx="968.3" cy="484.1" r="3" fill="#ffffff" stroke="#333333" stroke-width="1"/>
<circle cx="968.3" cy="470.2" r="3" fill="#ffffff" stroke="#333333" stroke-width="1"/>
<circle cx="968.3" cy="467.4" r="3" fill="#ffffff" stroke="#333333" stroke-width="1"/>
<circle cx="968.3" cy="465.6" r="3" fill="#ffffff" stroke="#333333" stroke-width="1"/>
<circle cx="968.3" cy="464.2" r="3" fill="#ffffff" stroke="#333333" stroke-width="1"/>
<circle cx="968.3" cy="463.0" r="3" fill="#ffffff" stroke="#333333" stroke-width="1"/>
<circle cx="968.3" cy="463.0" r="3" fill="#ffffff" stroke="#333333" stroke-width="1"/>
<circle cx="968.3" cy="455.6" r="3" fill="#ffffff" stroke="#333333" stroke-width="1"/>
<text x="968.3" y="595" text-anchor="middle" font-family="Arial, sans-serif" font-size="22" fill="#555555">n=56</text>
<text transform="translate(960.3 647) rotate(45)" text-anchor="start" font-family="Arial, sans-serif" font-size="28" fill="#222222">Unc. OR-Tools</text>
</svg>
