<?xml version="1.0" encoding="UTF-8"?>
<svg xmlns="http://www.w3.org/2000/svg" width="920" height="620" viewBox="0 0 920 620">
<rect x="0" y="0" width="920" height="620" fill="#ffffff"/>
<text x="460.0" y="32" text-anchor="middle" font-family="Arial, sans-serif" font-size="20" font-weight="700">Total Route Duration - results_ortools_quantum_benchmark</text>
<text transform="translate(22 288.0) rotate(-90)" text-anchor="middle" font-family="Arial, sans-serif" font-size="15">Total Route Duration</text>
<line x1="96" y1="500.0" x2="886" y2="500.0" stroke="#d9d9d9" stroke-width="1"/>
<text x="86" y="504.0" text-anchor="end" font-family="Arial, sans-serif" font-size="12" fill="#333333">0</text>
<line x1="96" y1="394.0" x2="886" y2="394.0" stroke="#d9d9d9" stroke-width="1"/>
<text x="86" y="398.0" text-anchor="end" font-family="Arial, sans-serif" font-size="12" fill="#333333">1,000</text>
<line x1="96" y1="288.0" x2="886" y2="288.0" stroke="#d9d9d9" stroke-width="1"/>
<text x="86" y="292.0" text-anchor="end" font-family="Arial, sans-serif" font-size="12" fill="#333333">2,000</text>
<line x1="96" y1="182.0" x2="886" y2="182.0" stroke="#d9d9d9" stroke-width="1"/>
<text x="86" y="186.0" text-anchor="end" font-family="Arial, sans-serif" font-size="12" fill="#333333">3,000</text>
<line x1="96" y1="76.0" x2="886" y2="76.0" stroke="#d9d9d9" stroke-width="1"/>
<text x="86" y="80.0" text-anchor="end" font-family="Arial, sans-serif" font-size="12" fill="#333333">4,000</text>
<line x1="96" y1="76" x2="96" y2="500" stroke="#333333" stroke-width="1.2"/>
<line x1="96" y1="500" x2="886" y2="500" stroke="#333333" stroke-width="1.2"/>
<line x1="293.5" y1="372.6" x2="293.5" y2="464.2" stroke="#333333" stroke-width="1.2"/>
<line x1="277.2" y1="372.6" x2="309.8" y2="372.6" stroke="#333333" stroke-width="1.2"/>
<line x1="277.2" y1="464.2" x2="309.8" y2="464.2" stroke="#333333" stroke-width="1.2"/>
<rect x="268.5" y="397.2" width="50.0" height="61.0" fill="#4C78A8" fill-opacity="0.70" stroke="#333333" stroke-width="1.2"/>
<line x1="268.5" y1="425.1" x2="318.5" y2="425.1" stroke="#111111" stroke-width="2"/>
<circle cx="293.5" cy="223.1" r="3" fill="#ffffff" stroke="#333333" stroke-width="1"/>
<circle cx="293.5" cy="197.6" r="3" fill="#ffffff" stroke="#333333" stroke-width="1"/>
<circle cx="293.5" cy="189.5" r="3" fill="#ffffff" stroke="#333333" stroke-width="1"/>
<circle cx="293.5" cy="183.2" r="3" fill="#ffffff" stroke="#333333" stroke-width="1"/>
<circle cx="293.5" cy="183.2" r="3" fill="#ffffff" stroke="#333333" stroke-width="1"/>
<circle cx="293.5" cy="183.2" r="3" fill="#ffffff" stroke="#333333" stroke-width="1"/>
<circle cx="293.5" cy="180.7" r="3" fill="#ffffff" stroke="#333333" stroke-width="1"/>
<circle cx="293.5" cy="169.5" r="3" fill="#ffffff" stroke="#333333" stroke-width="1"/>
<text x="293.5" y="517" text-anchor="middle" font-family="Arial, sans-serif" font-size="10" fill="#555555">n=56</text>
<text transform="translate(289.5 533) rotate(45)" text-anchor="start" font-family="Arial, sans-serif" font-size="12" fill="#222222">N10 Uncoarsened ORTools</text>
<line x1="688.5" y1="354.1" x2="688.5" y2="482.0" stroke="#333333" stroke-width="1.2"/>
<line x1="672.2" y1="354.1" x2="704.8" y2="354.1" stroke="#333333" stroke-width="1.2"/>
<line x1="672.2" y1="482.0" x2="704.8" y2="482.0" stroke="#333333" stroke-width="1.2"/>
<rect x="663.5" y="397.2" width="50.0" height="79.6" fill="#F58518" fill-opacity="0.70" stroke="#333333" stroke-width="1.2"/>
<line x1="663.5" y1="425.5" x2="713.5" y2="425.5" stroke="#111111" stroke-width="2"/>
<text x="688.5" y="517" text-anchor="middle" font-family="Arial, sans-serif" font-size="10" fill="#555555">n=56</text>
<text transform="translate(684.5 533) rotate(45)" text-anchor="start" font-family="Arial, sans-serif" font-size="12" fill="#222222">N5 Uncoarsened ORTools</text>
</svg>
