<?xml version="1.0" encoding="UTF-8"?>
<svg xmlns="http://www.w3.org/2000/svg" width="920" height="620" viewBox="0 0 920 620">
<rect x="0" y="0" width="920" height="620" fill="#ffffff"/>
<text x="460.0" y="32" text-anchor="middle" font-family="Arial, sans-serif" font-size="20" font-weight="700">Total Route Duration - result_classical</text>
<text transform="translate(22 288.0) rotate(-90)" text-anchor="middle" font-family="Arial, sans-serif" font-size="15">Total Route Duration</text>
<line x1="96" y1="500.0" x2="886" y2="500.0" stroke="#d9d9d9" stroke-width="1"/>
<text x="86" y="504.0" text-anchor="end" font-family="Arial, sans-serif" font-size="12" fill="#333333">0</text>
<line x1="96" y1="394.0" x2="886" y2="394.0" stroke="#d9d9d9" stroke-width="1"/>
<text x="86" y="398.0" text-anchor="end" font-family="Arial, sans-serif" font-size="12" fill="#333333">10,000</text>
<line x1="96" y1="288.0" x2="886" y2="288.0" stroke="#d9d9d9" stroke-width="1"/>
<text x="86" y="292.0" text-anchor="end" font-family="Arial, sans-serif" font-size="12" fill="#333333">20,000</text>
<line x1="96" y1="182.0" x2="886" y2="182.0" stroke="#d9d9d9" stroke-width="1"/>
<text x="86" y="186.0" text-anchor="end" font-family="Arial, sans-serif" font-size="12" fill="#333333">30,000</text>
<line x1="96" y1="76.0" x2="886" y2="76.0" stroke="#d9d9d9" stroke-width="1"/>
<text x="86" y="80.0" text-anchor="end" font-family="Arial, sans-serif" font-size="12" fill="#333333">40,000</text>
<line x1="96" y1="76" x2="96" y2="500" stroke="#333333" stroke-width="1.2"/>
<line x1="96" y1="500" x2="886" y2="500" stroke="#333333" stroke-width="1.2"/>
<line x1="161.8" y1="231.1" x2="161.8" y2="470.8" stroke="#333333" stroke-width="1.2"/>
<line x1="145.6" y1="231.1" x2="178.1" y2="231.1" stroke="#333333" stroke-width="1.2"/>
<line x1="145.6" y1="470.8" x2="178.1" y2="470.8" stroke="#333333" stroke-width="1.2"/>
<rect x="136.8" y="357.6" width="50.0" height="99.8" fill="#4C78A8" fill-opacity="0.70" stroke="#333333" stroke-width="1.2"/>
<line x1="136.8" y1="437.8" x2="186.8" y2="437.8" stroke="#111111" stroke-width="2"/>
<text x="161.8" y="517" text-anchor="middle" font-family="Arial, sans-serif" font-size="10" fill="#555555">n=56</text>
<text transform="translate(157.8 533) rotate(45)" text-anchor="start" font-family="Arial, sans-serif" font-size="12" fill="#222222">Inflated Greedy</text>
<line x1="293.5" y1="343.5" x2="293.5" y2="500.0" stroke="#333333" stroke-width="1.2"/>
<line x1="277.2" y1="343.5" x2="309.8" y2="343.5" stroke="#333333" stroke-width="1.2"/>
<line x1="277.2" y1="500.0" x2="309.8" y2="500.0" stroke="#333333" stroke-width="1.2"/>
<rect x="268.5" y="388.2" width="50.0" height="78.1" fill="#F58518" fill-opacity="0.70" stroke="#333333" stroke-width="1.2"/>
<line x1="268.5" y1="458.6" x2="318.5" y2="458.6" stroke="#111111" stroke-width="2"/>
<text x="293.5" y="517" text-anchor="middle" font-family="Arial, sans-serif" font-size="10" fill="#555555">n=56</text>
<text transform="translate(289.5 533) rotate(45)" text-anchor="start" font-family="Arial, sans-serif" font-size="12" fill="#222222">Inflated ORTools</text>
<line x1="425.2" y1="315.3" x2="425.2" y2="470.7" stroke="#333333" stroke-width="1.2"/>
<line x1="408.9" y1="315.3" x2="441.4" y2="315.3" stroke="#333333" stroke-width="1.2"/>
<line x1="408.9" y1="470.7" x2="441.4" y2="470.7" stroke="#333333" stroke-width="1.2"/>
<rect x="400.2" y="375.8" width="50.0" height="81.8" fill="#54A24B" fill-opacity="0.70" stroke="#333333" stroke-width="1.2"/>
<line x1="400.2" y1="434.2" x2="450.2" y2="434.2" stroke="#111111" stroke-width="2"/>
<text x="425.2" y="517" text-anchor="middle" font-family="Arial, sans-serif" font-size="10" fill="#555555">n=56</text>
<text transform="translate(421.2 533) rotate(45)" text-anchor="start" font-family="Arial, sans-serif" font-size="12" fill="#222222">Inflated Savings</text>
<line x1="556.8" y1="184.0" x2="556.8" y2="471.2" stroke="#333333" stroke-width="1.2"/>
<line x1="540.6" y1="184.0" x2="573.1" y2="184.0" stroke="#333333" stroke-width="1.2"/>
<line x1="540.6" y1="471.2" x2="573.1" y2="471.2" stroke="#333333" stroke-width="1.2"/>
<rect x="531.8" y="340.2" width="50.0" height="110.8" fill="#E45756" fill-opacity="0.70" stroke="#333333" stroke-width="1.2"/>
<line x1="531.8" y1="440.0" x2="581.8" y2="440.0" stroke="#111111" stroke-width="2"/>
<circle cx="556.8" cy="163.3" r="3" fill="#ffffff" stroke="#333333" stroke-width="1"/>
<circle cx="556.8" cy="111.4" r="3" fill="#ffffff" stroke="#333333" stroke-width="1"/>
<circle cx="556.8" cy="103.8" r="3" fill="#ffffff" stroke="#333333" stroke-width="1"/>
<text x="556.8" y="517" text-anchor="middle" font-family="Arial, sans-serif" font-size="10" fill="#555555">n=56</text>
<text transform="translate(552.8 533) rotate(45)" text-anchor="start" font-family="Arial, sans-serif" font-size="12" fill="#222222">Uncoarsened Greedy</text>
<line x1="688.5" y1="389.8" x2="688.5" y2="480.3" stroke="#333333" stroke-width="1.2"/>
<line x1="672.2" y1="389.8" x2="704.8" y2="389.8" stroke="#333333" stroke-width="1.2"/>
<line x1="672.2" y1="480.3" x2="704.8" y2="480.3" stroke="#333333" stroke-width="1.2"/>
<rect x="663.5" y="398.3" width="50.0" height="75.4" fill="#72B7B2" fill-opacity="0.70" stroke="#333333" stroke-width="1.2"/>
<line x1="663.5" y1="469.5" x2="713.5" y2="469.5" stroke="#111111" stroke-width="2"/>
<text x="688.5" y="517" text-anchor="middle" font-family="Arial, sans-serif" font-size="10" fill="#555555">n=56</text>
<text transform="translate(684.5 533) rotate(45)" text-anchor="start" font-family="Arial, sans-serif" font-size="12" fill="#222222">Uncoarsened ORTools</text>
<line x1="820.2" y1="283.5" x2="820.2" y2="476.1" stroke="#333333" stroke-width="1.2"/>
<line x1="803.9" y1="283.5" x2="836.4" y2="283.5" stroke="#333333" stroke-width="1.2"/>
<line x1="803.9" y1="476.1" x2="836.4" y2="476.1" stroke="#333333" stroke-width="1.2"/>
<rect x="795.2" y="378.5" width="50.0" height="83.0" fill="#B279A2" fill-opacity="0.70" stroke="#333333" stroke-width="1.2"/>
<line x1="795.2" y1="419.4" x2="845.2" y2="419.4" stroke="#111111" stroke-width="2"/>
<text x="820.2" y="517" text-anchor="middle" font-family="Arial, sans-serif" font-size="10" fill="#555555">n=56</text>
<text transform="translate(816.2 533) rotate(45)" text-anchor="start" font-family="Arial, sans-serif" font-size="12" fill="#222222">Uncoarsened Savings</text>
</svg>
